<svg width="48" height="48" viewBox="0 0 48 48" fill="none" xmlns="http://www.w3.org/2000/svg">
<path d="M16.299 42.7502C16.4647 42.7503 16.6237 42.8162 16.7409 42.9334C16.858 43.0506 16.924 43.2095 16.924 43.3752C16.924 43.541 16.8581 43.6999 16.7409 43.8171C16.6237 43.9343 16.4647 44.0002 16.299 44.0002H13.174C13.0083 44.0002 12.8493 43.9343 12.7321 43.8171C12.6149 43.6999 12.549 43.541 12.549 43.3752C12.549 43.2095 12.6149 43.0506 12.7321 42.9334C12.8493 42.8162 13.0083 42.7502 13.174 42.7502H16.299Z" fill="#1A2332"/>
<path d="M16.924 40.8752C17.0897 40.8753 17.2487 40.9412 17.3659 41.0584C17.483 41.1756 17.549 41.3345 17.549 41.5002C17.549 41.666 17.4831 41.825 17.3659 41.9421C17.2487 42.0593 17.0897 42.1252 16.924 42.1252H12.549C12.3833 42.1252 12.2243 42.0592 12.1071 41.9421C11.9899 41.8249 11.924 41.666 11.924 41.5002C11.924 41.3345 11.9899 41.1756 12.1071 41.0584C12.2243 40.9412 12.3833 40.8752 12.549 40.8752H16.924Z" fill="#1A2332"/>
<path d="M14.2067 22.1423C15.408 22.0523 16.6136 22.252 17.7215 22.725C18.8295 23.1981 19.808 23.9305 20.5739 24.8604C20.4097 24.8114 20.239 24.7855 20.0677 24.7831H20.0531C19.6683 24.7871 19.2855 24.8422 18.9154 24.9475C18.2871 24.3931 17.5544 23.97 16.7604 23.7024C15.9664 23.4348 15.127 23.328 14.2913 23.3891C12.8045 23.4785 11.3995 24.102 10.3354 25.1445C9.27143 26.1869 8.6193 27.5789 8.49951 29.0637C8.43431 30.0703 8.62231 31.0771 9.04557 31.9926C9.46896 32.9083 10.1146 33.7039 10.9238 34.3062C11.4019 34.6538 11.7919 35.1088 12.0623 35.6344C12.3328 36.1599 12.4765 36.7417 12.4814 37.3328V38.7423C12.4859 38.7936 12.5005 38.8437 12.5254 38.8888C12.5504 38.934 12.5851 38.9732 12.6263 39.0043L16.8483 39.0002C16.9111 38.9335 16.9475 38.846 16.9508 38.7545V38.3752C17.1062 38.3471 17.2613 38.3163 17.4147 38.2808C17.5199 38.2561 17.6248 38.23 17.7288 38.2019C17.8946 38.1574 18.0534 38.0903 18.2008 38.0025V38.7545C18.2006 39.4766 17.6676 40.25 16.8735 40.2502H12.5994C11.8165 40.2502 11.2317 39.4542 11.2314 38.7423V37.3328C11.2257 36.9356 11.1264 36.5447 10.9425 36.1926C10.7587 35.8407 10.4952 35.5364 10.1727 35.3048C9.19694 34.5778 8.41866 33.6182 7.90869 32.5134C7.39876 31.4087 7.17308 30.1941 7.25277 28.9799C7.39352 27.1936 8.17478 25.5178 9.45247 24.2615C10.7301 23.0054 12.4184 22.2529 14.2067 22.1423Z" fill="#1A2332"/>
<path d="M14.3776 35.9908C14.5219 36.006 14.6665 36.0171 14.8114 36.0242C14.9741 36.0322 15.1276 36.1034 15.2386 36.2227C15.3496 36.3422 15.4093 36.5008 15.4054 36.6638C15.4015 36.8265 15.3345 36.9813 15.2183 37.0951C15.1017 37.209 14.945 37.2731 14.7821 37.2734C14.7717 37.2734 14.7607 37.2737 14.7503 37.2734C14.5829 37.2651 14.4151 37.2517 14.2482 37.2343C14.1666 37.2258 14.0876 37.2009 14.0155 37.1619C13.9433 37.1228 13.8792 37.0702 13.8275 37.0064C13.7758 36.9427 13.7369 36.8694 13.7135 36.7908C13.6902 36.7122 13.6831 36.6298 13.6916 36.5483C13.7001 36.4666 13.7241 36.3869 13.7632 36.3147C13.8023 36.2426 13.8557 36.1792 13.9194 36.1275C13.9832 36.0758 14.0564 36.037 14.1351 36.0136C14.2137 35.9903 14.2961 35.9823 14.3776 35.9908Z" fill="#1A2332"/>
<path d="M17.0819 35.7874C17.2418 35.7445 17.4121 35.7673 17.5555 35.85C17.699 35.9329 17.8039 36.0692 17.8468 36.2293C17.8897 36.3894 17.8679 36.5602 17.785 36.7037C17.7021 36.8472 17.565 36.9521 17.4049 36.995C17.3144 37.0194 17.2225 37.0418 17.1307 37.0634C16.8974 37.1171 16.6587 37.1619 16.4202 37.196C16.3905 37.2003 16.3599 37.2025 16.3299 37.2026C16.1721 37.2022 16.0205 37.1418 15.9051 37.0341C15.7896 36.9263 15.7193 36.7791 15.7082 36.6215C15.697 36.464 15.7458 36.3082 15.8449 36.1853C15.944 36.0625 16.0858 35.9816 16.242 35.9591C16.4459 35.9298 16.6502 35.8917 16.8483 35.846C16.9258 35.8279 17.004 35.8081 17.0819 35.7874Z" fill="#1A2332"/>
<path d="M19.6405 34.7799C19.8022 34.8156 19.9435 34.9138 20.0327 35.0533C20.1219 35.193 20.1522 35.3627 20.1165 35.5245C20.0808 35.6864 19.982 35.8276 19.8423 35.9168C19.5606 36.0965 19.2691 36.2604 18.9691 36.4075C18.8837 36.4492 18.7898 36.4709 18.6948 36.471C18.5536 36.4711 18.4165 36.4236 18.3058 36.3359C18.1952 36.2481 18.1173 36.1251 18.0853 35.9876C18.0533 35.8499 18.0693 35.705 18.13 35.5774C18.1908 35.4498 18.2928 35.3465 18.4198 35.2844C18.6775 35.1583 18.9282 35.0173 19.1701 34.8629C19.3097 34.7739 19.4788 34.7443 19.6405 34.7799Z" fill="#1A2332"/>
<path d="M21.3136 33.1376C21.4788 33.1233 21.6433 33.175 21.7702 33.2817C21.897 33.3883 21.9764 33.5413 21.9907 33.7065C22.005 33.8716 21.9525 34.0353 21.8459 34.1622C21.6303 34.4181 21.4007 34.6618 21.1574 34.8914C21.0416 35.0009 20.8879 35.0624 20.7285 35.0623C20.6033 35.0623 20.4805 35.0243 20.377 34.954C20.2735 34.8837 20.1936 34.7838 20.1475 34.6676C20.1013 34.5512 20.091 34.4236 20.1182 34.3014C20.1453 34.1792 20.2086 34.0682 20.2996 33.9823C20.5079 33.7858 20.7045 33.5772 20.8888 33.3582C20.9955 33.2313 21.1485 33.1519 21.3136 33.1376Z" fill="#1A2332"/>
<path d="M22.9372 28.5706C23.018 28.5847 23.095 28.6153 23.1642 28.6593C23.2335 28.7033 23.2937 28.7605 23.3408 28.8277C23.3879 28.8949 23.4215 28.9706 23.4393 29.0507C23.4683 29.1804 23.491 29.312 23.5068 29.4438C23.5292 29.6295 23.5402 29.8165 23.5402 30.0037C23.5402 30.0452 23.5398 30.0865 23.5386 30.1274C23.5358 30.2405 23.5023 30.3508 23.4417 30.4464C23.595 30.3847 23.7665 30.386 23.9186 30.4504C24.0707 30.5149 24.1915 30.6369 24.2539 30.7898C24.3163 30.9429 24.3152 31.115 24.2515 31.2675C24.1877 31.4199 24.0656 31.5406 23.9129 31.6036C23.6813 31.6985 23.4447 31.7809 23.2041 31.8502C23.0895 32.168 22.9515 32.4771 22.7915 32.7747C22.7529 32.8471 22.7003 32.9113 22.6369 32.9635C22.5734 33.0156 22.4999 33.0552 22.4212 33.079C22.3427 33.1028 22.2603 33.1107 22.1787 33.1026C22.097 33.0945 22.0175 33.0705 21.9452 33.0318C21.8727 32.993 21.8084 32.94 21.7563 32.8764C21.7044 32.8128 21.6653 32.7394 21.6416 32.6607C21.618 32.5822 21.6098 32.4998 21.618 32.4182C21.6263 32.3365 21.6507 32.257 21.6896 32.1847C21.822 31.9385 21.9361 31.6828 22.0306 31.4197C22.062 31.3312 22.1127 31.2505 22.1795 31.1845C22.2039 31.0691 22.261 30.9632 22.3431 30.8785C22.4253 30.7938 22.5295 30.7338 22.6442 30.706C22.6589 30.7023 22.674 30.6991 22.689 30.6954C22.5686 30.649 22.4652 30.5659 22.3936 30.4586C22.322 30.3513 22.2853 30.2245 22.2886 30.0956L22.2902 30.0037C22.2902 29.8666 22.2821 29.7296 22.2658 29.5935C22.2548 29.5024 22.2392 29.4118 22.2194 29.3225C22.2016 29.2424 22.1995 29.1592 22.2137 29.0784C22.2279 28.9977 22.2577 28.9205 22.3016 28.8513C22.3456 28.7821 22.4029 28.7218 22.4701 28.6747C22.5371 28.6277 22.6131 28.5941 22.693 28.5763C22.7731 28.5584 22.8564 28.5564 22.9372 28.5706Z" fill="#1A2332"/>
<path d="M20.4551 30.7532C20.6106 30.7852 20.7719 30.8105 20.9344 30.8272C21.0473 30.8388 21.1598 30.8467 21.2721 30.85C21.4359 30.8552 21.5911 30.9244 21.7043 31.0429C21.8175 31.1615 21.8801 31.32 21.8776 31.484C21.8751 31.6479 21.808 31.8042 21.6912 31.9194C21.5744 32.0345 21.4166 32.0991 21.2526 32.0992C21.2463 32.0992 21.2397 32.0995 21.2331 32.0992C21.0914 32.0945 20.9491 32.0846 20.8066 32.0699C20.604 32.0492 20.4024 32.0189 20.2028 31.9779C20.1224 31.9614 20.0461 31.9288 19.9782 31.8827C19.9103 31.8367 19.8516 31.7779 19.8065 31.7094C19.7614 31.6409 19.7308 31.5637 19.7153 31.4832C19.6999 31.4027 19.7005 31.3201 19.717 31.2398C19.7333 31.1593 19.7654 31.0825 19.8114 31.0144C19.8573 30.9464 19.9161 30.8879 19.9847 30.8427C20.0533 30.7975 20.1303 30.7661 20.2109 30.7507C20.2916 30.7354 20.3747 30.7364 20.4551 30.7532Z" fill="#1A2332"/>
<path d="M18.318 29.5276C18.3991 29.5395 18.4772 29.567 18.5475 29.609C18.6181 29.6511 18.68 29.7074 18.729 29.7734C18.827 29.905 18.9405 30.0249 19.0667 30.1298C19.1255 30.1789 19.1872 30.2245 19.2507 30.2673C19.3186 30.3133 19.3764 30.373 19.4216 30.4415C19.4667 30.5099 19.498 30.5864 19.5135 30.6669C19.529 30.7475 19.5284 30.8306 19.5119 30.9111C19.4954 30.9914 19.4635 31.0677 19.4175 31.1357C19.3715 31.2036 19.3127 31.2622 19.2441 31.3074C19.1756 31.3525 19.0985 31.3838 19.0179 31.3993C18.9375 31.4148 18.8548 31.4141 18.7746 31.3977C18.6944 31.3812 18.6178 31.3492 18.55 31.3033C18.4526 31.2373 18.3582 31.1663 18.2676 31.0909C18.0653 30.9228 17.8835 30.7314 17.7264 30.5204C17.6772 30.4547 17.6417 30.3795 17.6214 30.2999C17.6012 30.2203 17.5966 30.1371 17.6084 30.0557C17.6202 29.9747 17.6479 29.8967 17.6898 29.8263C17.7318 29.7557 17.7875 29.6939 17.8534 29.6448C17.9192 29.5957 17.9942 29.5599 18.0739 29.5398C18.1536 29.5197 18.2367 29.5157 18.318 29.5276Z" fill="#1A2332"/>
<path d="M25.77 29.058C25.9357 29.0634 26.0928 29.1349 26.2062 29.2558C26.3194 29.3767 26.38 29.5379 26.3747 29.7034C26.3693 29.8688 26.2984 30.0254 26.1777 30.1388C25.9311 30.3701 25.6691 30.585 25.394 30.7817C25.2883 30.8575 25.1612 30.8989 25.0311 30.8988C24.8986 30.899 24.7695 30.8564 24.6624 30.7784C24.5554 30.7004 24.4759 30.5904 24.4354 30.4643C24.395 30.3383 24.3954 30.2025 24.437 30.0769C24.4786 29.9514 24.5589 29.8422 24.6665 29.7652C24.8967 29.6007 25.1161 29.421 25.3224 29.2273C25.4434 29.1139 25.6043 29.0527 25.77 29.058Z" fill="#1A2332"/>
<path d="M5.94173 28.9994C6.10743 28.9994 6.26643 29.0654 6.38363 29.1825C6.50078 29.2997 6.56666 29.4588 6.56673 29.6244C6.56673 29.7901 6.50074 29.9491 6.38363 30.0663C6.26642 30.1835 6.10748 30.2494 5.94173 30.2494H4.625C4.45927 30.2494 4.30029 30.1835 4.18311 30.0663C4.066 29.9491 4.00001 29.7901 4 29.6244C4.00008 29.4588 4.06595 29.2997 4.18311 29.1825C4.30029 29.0654 4.45931 28.9995 4.625 28.9994H5.94173Z" fill="#1A2332"/>
<path d="M20.9954 29.5756L20.9832 29.574C20.9836 29.5545 20.9855 29.5349 20.9857 29.5154C20.9893 29.5354 20.9912 29.5555 20.9954 29.5756Z" fill="#1A2332"/>
<path d="M18.0715 27.1969C18.1528 27.2077 18.2315 27.2346 18.3026 27.2758C18.3736 27.317 18.4358 27.3717 18.4857 27.4369C18.5355 27.5021 18.572 27.5766 18.5931 27.6558C18.6142 27.7352 18.6195 27.8186 18.6086 27.9C18.5976 27.9812 18.5708 28.0594 18.5296 28.1303C18.4473 28.2704 18.3938 28.4257 18.3726 28.5868C18.3668 28.6313 18.364 28.6763 18.3628 28.7211C18.3582 28.8836 18.2905 29.0382 18.174 29.1516C18.0574 29.2651 17.9005 29.3289 17.7378 29.329C17.7322 29.329 17.7263 29.3285 17.7207 29.3282C17.555 29.3236 17.3976 29.2533 17.2837 29.1329C17.1699 29.0125 17.1082 28.8517 17.1128 28.6861C17.1151 28.6003 17.1216 28.5144 17.1323 28.429C17.1745 28.1025 17.2821 27.7879 17.4481 27.5037C17.4892 27.4326 17.5441 27.3705 17.6092 27.3206C17.6744 27.2706 17.7488 27.2335 17.8281 27.2123C17.9074 27.1912 17.9901 27.1861 18.0715 27.1969Z" fill="#1A2332"/>
<path d="M27.033 27.1122C27.1901 27.0597 27.3617 27.0718 27.5099 27.1456C27.6581 27.2194 27.7714 27.3491 27.8241 27.5061C27.8767 27.663 27.8643 27.8347 27.7907 27.983C27.6392 28.2866 27.4673 28.5795 27.2756 28.8595C27.2182 28.9434 27.1409 29.0122 27.0509 29.0597C26.9609 29.1071 26.8605 29.1322 26.7588 29.1321C26.6452 29.1319 26.5338 29.1005 26.4365 29.0418C26.3394 28.983 26.26 28.8988 26.207 28.7984C26.1541 28.698 26.129 28.5846 26.1354 28.4713C26.1419 28.3578 26.1795 28.2477 26.2437 28.1539C26.4028 27.9211 26.5464 27.6778 26.6725 27.4255C26.7466 27.2775 26.876 27.1647 27.033 27.1122Z" fill="#1A2332"/>
<path d="M21.4129 26.5247C21.5764 26.4974 21.7443 26.5358 21.8792 26.6321C22.182 26.8498 22.4509 27.1117 22.6768 27.4085C22.7775 27.5399 22.8213 27.7065 22.7996 27.8707C22.7779 28.0349 22.6918 28.1841 22.5604 28.2849C22.429 28.3855 22.263 28.4302 22.099 28.4086C21.9346 28.3869 21.7856 28.3001 21.6847 28.1685C21.5342 27.9702 21.3545 27.7958 21.1525 27.6501C21.0176 27.5538 20.9267 27.4075 20.8994 27.2441C20.8721 27.0806 20.9105 26.9127 21.0068 26.7778C21.1032 26.6429 21.2494 26.552 21.4129 26.5247Z" fill="#1A2332"/>
<path d="M20.0628 26.0331C20.145 26.0319 20.2266 26.0473 20.3029 26.0779C20.3791 26.1085 20.4486 26.1537 20.5072 26.2113C20.5658 26.2691 20.6129 26.3381 20.6447 26.414C20.6764 26.4897 20.6926 26.5711 20.6927 26.6532C20.694 26.819 20.6292 26.9786 20.5129 27.0968C20.3966 27.2148 20.2383 27.2818 20.0726 27.2831C19.8389 27.2866 19.6076 27.3336 19.3906 27.4207C19.3173 27.4503 19.2386 27.4654 19.1595 27.4654C19.0143 27.4654 18.8735 27.4147 18.7616 27.3222C18.6495 27.2296 18.5733 27.1003 18.5459 26.9576C18.5186 26.8151 18.5414 26.6675 18.611 26.5401C18.6808 26.4126 18.7934 26.3132 18.9284 26.2594C19.2891 26.114 19.6739 26.0371 20.0628 26.0331Z" fill="#1A2332"/>
<path d="M27.4912 22.2668C27.573 22.2696 27.6534 22.2884 27.728 22.3222C27.8027 22.356 27.8705 22.404 27.9266 22.4638C27.9827 22.5237 28.0263 22.5945 28.0552 22.6713C28.1731 22.988 28.2706 23.3121 28.3465 23.6414C28.3734 23.7551 28.3675 23.8742 28.3294 23.9848C28.4404 23.9293 28.551 23.8691 28.6598 23.8041C28.7304 23.7617 28.8087 23.7332 28.8901 23.7211C28.9715 23.709 29.0545 23.7133 29.1343 23.7333C29.2141 23.7534 29.2896 23.7891 29.3556 23.8383C29.4216 23.8874 29.4771 23.9492 29.5192 24.0198C29.5613 24.0905 29.5888 24.1694 29.6006 24.2509C29.6123 24.3323 29.608 24.4154 29.5876 24.495C29.5671 24.5747 29.5312 24.6498 29.4818 24.7156C29.4323 24.7813 29.3703 24.8366 29.2995 24.8783C29.0426 25.0316 28.7748 25.1662 28.4987 25.2812C28.5006 25.3068 28.501 25.3329 28.4995 25.3585C28.4804 25.7018 28.4339 26.0431 28.3604 26.379C28.3298 26.5181 28.2531 26.6428 28.1423 26.7322C28.0314 26.8214 27.8931 26.8702 27.7508 26.8705C27.7058 26.8705 27.6606 26.8654 27.6165 26.8559C27.4546 26.8204 27.3129 26.722 27.2235 26.5824C27.1342 26.443 27.1036 26.2738 27.1388 26.1121C27.1982 25.8417 27.2358 25.5665 27.2511 25.2901C27.2563 25.1945 27.284 25.101 27.3309 25.0175C27.3778 24.9342 27.4433 24.8624 27.5221 24.8084C27.5088 24.6635 27.5462 24.5185 27.6279 24.3982C27.5077 24.3767 27.3959 24.3204 27.3073 24.2363C27.2189 24.1522 27.1567 24.0442 27.1291 23.9254C27.0654 23.6492 26.9839 23.3772 26.8849 23.1116C26.856 23.0347 26.8432 22.9527 26.8459 22.8707C26.8486 22.7887 26.8673 22.7078 26.9012 22.6331C26.935 22.5585 26.9831 22.4913 27.0428 22.4353C27.1027 22.3792 27.1735 22.3348 27.2503 22.3059C27.3271 22.2771 27.4092 22.2641 27.4912 22.2668Z" fill="#1A2332"/>
<path d="M25.7928 24.4039C26.061 24.4438 26.3325 24.4573 26.6034 24.4446C26.6128 24.4443 26.6229 24.4438 26.6327 24.4438C26.7957 24.444 26.9523 24.508 27.0688 24.622C27.1854 24.7362 27.2532 24.8918 27.2568 25.0549C27.2605 25.218 27.1997 25.376 27.0884 25.4952C26.977 25.6145 26.8234 25.6855 26.6603 25.693C26.5775 25.6966 26.4947 25.6986 26.4121 25.6987C26.1448 25.6984 25.8775 25.6792 25.613 25.6409C25.5317 25.629 25.4532 25.6015 25.3827 25.5595C25.3122 25.5175 25.251 25.4617 25.202 25.3959C25.1529 25.3301 25.1172 25.255 25.097 25.1754C25.0769 25.0959 25.0722 25.0132 25.084 24.9321C25.0958 24.8509 25.1242 24.7731 25.1662 24.7026C25.2082 24.6321 25.2632 24.5701 25.3289 24.5211C25.3947 24.472 25.4699 24.4363 25.5495 24.4161C25.629 24.396 25.7116 24.3921 25.7928 24.4039Z" fill="#1A2332"/>
<path d="M6.09635 23.6934C6.17746 23.7052 6.25539 23.733 6.32585 23.7748L7.46598 24.4527C7.58366 24.5227 7.67528 24.6301 7.7264 24.7571C7.77742 24.884 7.78547 25.024 7.74919 25.1558C7.71285 25.2878 7.63422 25.4041 7.52539 25.4871C7.41643 25.57 7.28309 25.6149 7.14616 25.6148C7.03389 25.6148 6.92357 25.5844 6.82715 25.5269L5.68701 24.849C5.61654 24.8071 5.55461 24.752 5.50553 24.6863C5.45642 24.6205 5.42076 24.5453 5.40055 24.4657C5.38039 24.3863 5.37659 24.3036 5.38835 24.2224C5.40012 24.1412 5.42777 24.0626 5.46973 23.9921C5.51161 23.9218 5.56694 23.8604 5.63249 23.8114C5.69825 23.7623 5.77348 23.7267 5.85303 23.7065C5.93252 23.6863 6.01519 23.6817 6.09635 23.6934Z" fill="#1A2332"/>
<path d="M23.4564 23.3875C23.5384 23.385 23.6206 23.3982 23.6973 23.4273C23.774 23.4565 23.8442 23.5012 23.904 23.5575C24.0897 23.7325 24.2983 23.8815 24.5233 24.0019C24.6696 24.0796 24.7791 24.2129 24.8276 24.3713C24.8761 24.5297 24.8597 24.7011 24.7821 24.8474C24.7436 24.9198 24.6914 24.984 24.6283 25.0362C24.565 25.0884 24.4918 25.1277 24.4134 25.1518C24.335 25.1758 24.2525 25.184 24.1709 25.1762C24.0893 25.1684 24.0098 25.1446 23.9373 25.1062C23.6135 24.9339 23.3138 24.7192 23.047 24.4674C22.9872 24.4111 22.9392 24.3436 22.9054 24.2688C22.8717 24.194 22.8534 24.1132 22.8509 24.0312C22.8484 23.9491 22.8617 23.8671 22.8908 23.7903C22.9199 23.7135 22.9639 23.6433 23.0202 23.5836C23.0764 23.5238 23.1439 23.4757 23.2188 23.442C23.2935 23.4083 23.3744 23.3899 23.4564 23.3875Z" fill="#1A2332"/>
<path d="M30.748 22.078C30.9125 22.0577 31.0788 22.1039 31.2095 22.2058C31.34 22.3077 31.4251 22.4573 31.4455 22.6217C31.4658 22.7861 31.4196 22.9524 31.3177 23.0831C31.1097 23.3501 30.884 23.6031 30.6423 23.8399C30.5255 23.9544 30.3679 24.0183 30.2044 24.0182C30.0804 24.0181 29.9591 23.9807 29.8561 23.9115C29.7532 23.8423 29.6727 23.744 29.6258 23.6292C29.579 23.5142 29.5673 23.3877 29.5924 23.2662C29.6176 23.1447 29.6787 23.0332 29.7674 22.9464C29.9693 22.7483 30.1581 22.537 30.3322 22.314C30.4341 22.1834 30.5836 22.0984 30.748 22.078Z" fill="#1A2332"/>
<path d="M22.8257 21.1894C22.9049 21.2112 22.979 21.2488 23.0438 21.2992C23.1086 21.3497 23.1627 21.4126 23.2033 21.484C23.2438 21.5554 23.2697 21.6344 23.2798 21.7159C23.2898 21.7973 23.2845 21.8801 23.2627 21.9592C23.2376 22.0507 23.2244 22.1451 23.2244 22.24C23.2249 22.3464 23.2393 22.4529 23.2668 22.5557C23.3085 22.7161 23.2846 22.8864 23.2008 23.0294C23.117 23.1724 22.9796 23.2764 22.8192 23.3183C22.6588 23.36 22.4885 23.3362 22.3455 23.2524C22.2027 23.1686 22.0985 23.0318 22.0566 22.8715C22.0025 22.6656 21.975 22.4529 21.9744 22.24C21.9744 22.0331 22.0019 21.8267 22.0566 21.6272C22.0783 21.5481 22.1154 21.4739 22.1657 21.4091C22.216 21.3442 22.2791 21.2902 22.3504 21.2496C22.4218 21.2089 22.5008 21.1825 22.5824 21.1723C22.6638 21.1621 22.7466 21.1676 22.8257 21.1894Z" fill="#1A2332"/>
<path d="M19.9253 19.8214C20.0847 19.7765 20.2552 19.7968 20.3997 19.8775C20.4713 19.9176 20.5345 19.971 20.5853 20.0354C20.636 20.0998 20.6737 20.1738 20.696 20.2527C20.7182 20.3316 20.7251 20.4146 20.7155 20.496C20.7058 20.5775 20.6799 20.6564 20.6398 20.7279L19.9814 21.9031C19.9004 22.0477 19.765 22.1543 19.6055 22.1993C19.4461 22.2441 19.2755 22.224 19.131 22.1432C18.9864 22.0621 18.8798 21.9267 18.8348 21.7672C18.7898 21.6076 18.8099 21.4366 18.891 21.2919L19.5493 20.1168C19.6305 19.9725 19.7659 19.8663 19.9253 19.8214Z" fill="#1A2332"/>
<path d="M9.95133 19.8214C10.1107 19.8664 10.2462 19.9724 10.3273 20.1168L10.9849 21.2919C11.0249 21.3635 11.0509 21.4424 11.0605 21.5238C11.0702 21.6053 11.0641 21.6882 11.0418 21.7672C11.0196 21.8461 10.9819 21.92 10.9312 21.9845C10.8804 22.0489 10.8172 22.103 10.7456 22.1432C10.6741 22.1832 10.5951 22.2083 10.5137 22.218C10.4322 22.2277 10.3493 22.2216 10.2703 22.1993C10.1914 22.177 10.1175 22.1394 10.0531 22.0886C9.98859 22.0378 9.93449 21.9747 9.89437 21.9031L9.236 20.7279C9.19596 20.6564 9.17078 20.5774 9.16113 20.496C9.1515 20.4145 9.15759 20.3317 9.17985 20.2527C9.20214 20.1738 9.23978 20.0998 9.29053 20.0354C9.3413 19.971 9.40455 19.9176 9.47607 19.8775C9.62075 19.7967 9.79182 19.7764 9.95133 19.8214Z" fill="#1A2332"/>
<path d="M26.1623 20.2999C26.2425 20.3167 26.3192 20.3488 26.3869 20.3951C26.6919 20.6052 26.9659 20.8583 27.1999 21.1454C27.252 21.2088 27.2915 21.2818 27.3154 21.3603C27.3393 21.4387 27.3478 21.5212 27.3398 21.6028C27.3319 21.6846 27.3077 21.7647 27.269 21.8372C27.2304 21.9096 27.177 21.9731 27.1136 22.0251C27.0501 22.0773 26.9774 22.1169 26.8988 22.1407C26.8201 22.1646 26.7372 22.1724 26.6554 22.1643C26.5738 22.1562 26.4942 22.1322 26.4219 22.0935C26.3497 22.0548 26.2858 22.0022 26.2339 21.9389C26.0756 21.7435 25.8898 21.5716 25.6829 21.4286C25.615 21.3824 25.5563 21.3232 25.5112 21.2545C25.4662 21.1859 25.4354 21.1088 25.4201 21.0282C25.4048 20.9476 25.4058 20.8645 25.4225 20.7841C25.4393 20.7038 25.4715 20.6273 25.5177 20.5595C25.564 20.4917 25.6233 20.4335 25.6919 20.3886C25.7607 20.3436 25.8382 20.3127 25.9189 20.2974C25.9995 20.2823 26.0821 20.2831 26.1623 20.2999Z" fill="#1A2332"/>
<path fill-rule="evenodd" clip-rule="evenodd" d="M43.4889 4.01083C43.4994 4.01273 43.5095 4.0157 43.5199 4.01815C43.5421 4.02335 43.5643 4.02928 43.5858 4.03687L43.6712 4.07349C43.7166 4.09821 43.7587 4.12868 43.7966 4.16382C43.8007 4.16754 43.8064 4.16971 43.8104 4.17359C43.8156 4.17872 43.8184 4.18543 43.8234 4.19068C43.8349 4.20254 43.8477 4.21275 43.8584 4.22567C43.8778 4.2501 43.8957 4.27592 43.9113 4.30298C43.9143 4.30793 43.9183 4.3126 43.9211 4.31763C43.9459 4.36275 43.9651 4.41098 43.978 4.46086C43.9811 4.47227 43.9837 4.48346 43.9862 4.49504C43.9975 4.54514 44.0021 4.59669 44.0008 4.64803V4.65292C43.9977 4.70482 43.9882 4.75639 43.9723 4.80591C43.9705 4.81215 43.9703 4.81843 43.9683 4.82463L39.9701 16.5946C39.9418 16.6774 39.8968 16.7535 39.8374 16.8176C39.778 16.8819 39.7054 16.9328 39.625 16.9674C39.5446 17.0019 39.4577 17.0189 39.3703 17.0178C39.2828 17.0167 39.1967 16.9973 39.1172 16.9609L36.2868 15.6596L32.501 20.033C32.4779 20.0583 32.4522 20.0818 32.4253 20.1029C32.4881 20.1791 32.5319 20.2694 32.5531 20.3658C32.5742 20.4623 32.5725 20.5625 32.5474 20.658C32.4584 20.9914 32.3419 21.3171 32.1991 21.6313C32.1653 21.7062 32.1173 21.7744 32.0575 21.8307C31.9976 21.8869 31.9268 21.9302 31.8499 21.9592C31.7731 21.9883 31.6912 22.0025 31.6091 21.9999C31.527 21.9973 31.4462 21.9784 31.3714 21.9446C31.2966 21.9107 31.229 21.8621 31.1729 21.8022C31.1167 21.7422 31.0732 21.6715 31.0443 21.5946C31.0154 21.5178 31.0017 21.4358 31.0044 21.3538C31.0072 21.2718 31.0258 21.1908 31.0597 21.1161C31.1741 20.865 31.2677 20.6048 31.3389 20.3381C31.3722 20.2128 31.4439 20.1009 31.5439 20.0183C31.4688 19.9267 31.4214 19.8153 31.4072 19.6977L30.6309 13.1116L26.3047 11.6785C26.1823 11.6379 26.0753 11.5607 25.9987 11.4571C25.9221 11.3535 25.8796 11.2287 25.8766 11.0999C25.8737 10.971 25.9106 10.844 25.9824 10.7369C26.0543 10.63 26.1575 10.5478 26.2778 10.5017L43.1528 4.04012C43.1585 4.03797 43.1651 4.03804 43.1707 4.03606C43.2149 4.02065 43.261 4.01024 43.3075 4.00513C43.3177 4.00396 43.3281 4.00168 43.3384 4.00106C43.3888 3.99798 43.4393 4.00172 43.4889 4.01083ZM31.8711 12.9529L32.3838 17.3027L33.6338 13.8025C33.6641 13.7178 33.7126 13.6406 33.7754 13.5763L38.895 8.32479L31.8711 12.9529ZM34.765 14.3518L34.0627 16.3196L35.6488 14.4861C35.7372 14.3838 35.8568 14.313 35.9889 14.2843C36.1213 14.2556 36.2598 14.2708 36.3828 14.3274L39.0098 15.5359L41.8963 7.03736L34.765 14.3518ZM28.3604 11.0429L31.1143 11.9543L38.2391 7.26034L28.3604 11.0429Z" fill="#1A2332"/>
<path d="M24.5697 19.8604C24.7338 19.8607 24.8915 19.9257 25.0083 20.0411C25.1251 20.1565 25.1917 20.3139 25.1938 20.4781C25.1959 20.6422 25.1334 20.8009 25.0197 20.9192C24.906 21.0375 24.75 21.1059 24.5859 21.1104C24.3549 21.1151 24.1266 21.1638 23.9137 21.2537C23.8352 21.2883 23.7498 21.3066 23.6639 21.3066C23.5204 21.3065 23.3814 21.2563 23.27 21.1658C23.1586 21.0752 23.0812 20.9491 23.0519 20.8085C23.0227 20.6681 23.0431 20.5218 23.1089 20.3943C23.1748 20.2667 23.2825 20.1653 23.4141 20.1078C23.7743 19.9537 24.1609 19.8702 24.5526 19.8613C24.5584 19.8609 24.5642 19.8604 24.5697 19.8604Z" fill="#1A2332"/>
<path d="M14.9383 18.3744C15.104 18.3745 15.2631 18.4404 15.3802 18.5575C15.4973 18.6747 15.5633 18.8338 15.5633 18.9994V20.356C15.5633 20.5217 15.4973 20.6808 15.3802 20.7979C15.2631 20.9151 15.104 20.981 14.9383 20.981C14.7727 20.981 14.6136 20.915 14.4964 20.7979C14.3793 20.6808 14.3134 20.5217 14.3133 20.356V18.9994C14.3133 18.8337 14.3792 18.6748 14.4964 18.5575C14.6136 18.4404 14.7726 18.3744 14.9383 18.3744Z" fill="#1A2332"/>
</svg>
