<svg width="48" height="48" viewBox="0 0 48 48" fill="none" xmlns="http://www.w3.org/2000/svg">
<path fill-rule="evenodd" clip-rule="evenodd" d="M7.88895 19.8182L4.22922 15.2451C4.02732 14.9922 3.95479 14.6629 4.02928 14.3492C4.10377 14.0356 4.31939 13.7749 4.61344 13.6396L15.5239 8.68027C16.0041 4.35212 19.5659 1 23.8625 1C28.1592 1 31.723 4.35197 32.2012 8.68027L43.1116 13.6396C43.4057 13.7729 43.6213 14.0356 43.6958 14.3492C43.7703 14.6629 43.6978 14.9942 43.4959 15.2451L39.8361 19.8182L43.4959 24.3914C43.7017 24.6482 43.7742 24.9854 43.6919 25.3049C43.6096 25.6224 43.3841 25.8831 43.0823 26.0105L41.6337 26.6143V39.683C41.6337 40.1182 41.3632 40.5083 40.9554 40.6612L24.229 46.9338C23.9918 47.0221 23.7311 47.0221 23.4959 46.9338L6.76938 40.6612C6.36165 40.5083 6.09112 40.1182 6.09112 39.683V26.6143L4.64254 26.0105C4.3387 25.8831 4.11327 25.6224 4.03293 25.3049C3.9506 24.9873 4.02509 24.6502 4.22895 24.3914L7.88895 19.8182ZM15.5828 10.9502L6.70116 14.9882L9.57876 18.5852L18.1176 15.5352C16.8651 14.2983 15.9045 12.7183 15.585 10.9502L15.5828 10.9502ZM30.1489 9.19187C29.9098 5.79288 27.1949 3.09382 23.8627 3.09382C20.5305 3.09382 17.8153 5.79499 17.5765 9.19187C17.6 9.33497 17.5941 9.48002 17.5588 9.61724V9.68193C17.5588 11.6833 18.7428 13.424 20.213 14.6079L20.2189 14.6119C21.1814 15.3979 21.7439 16.5701 21.7557 17.8129L21.7635 18.7754H22.8181V12.9358L21.0343 11.152C20.6266 10.7442 20.6266 10.0817 21.0343 9.67396C21.4421 9.26623 22.1046 9.26623 22.5123 9.67396L23.8649 11.0265L25.2174 9.67396C25.6251 9.26623 26.2877 9.26623 26.6954 9.67396C27.1031 10.0817 27.1031 10.7442 26.6954 11.152L24.9116 12.9358V18.7754H25.9525C25.9505 18.4892 25.9505 18.1716 25.9525 17.86C25.9446 16.5976 26.5092 15.3999 27.4873 14.6001C28.9555 13.4064 30.1709 11.6735 30.1709 9.67998V9.61529C30.1356 9.47807 30.1297 9.33302 30.1532 9.18992L30.1489 9.19187ZM38.1484 18.5833L41.026 14.9863L32.1403 10.9483C31.815 12.7085 30.8368 14.2845 29.5803 15.5234L38.1484 18.5833ZM39.544 27.4845L30.5369 31.2383C30.1782 31.3873 29.7646 31.3266 29.4647 31.0756L24.9072 27.2768V44.4443L39.5442 38.9555V27.4825L39.544 27.4845ZM25.9383 25.4126L30.3175 29.0625L40.9966 24.6128L38.1484 21.0511L25.9383 25.4126ZM8.18061 27.4845V38.9575L22.8175 44.4463V27.2788L18.2601 31.0777C17.9601 31.3266 17.5485 31.3893 17.1878 31.2404L8.18076 27.4865L8.18061 27.4845ZM9.57625 21.0533L6.72806 24.615L17.4072 29.0647L21.7863 25.4148L9.57625 21.0533ZM19.6713 18.7716L19.6634 17.8287C19.6615 17.6229 19.6301 17.4249 19.5713 17.2328L12.3341 19.8163L23.8623 23.9328L35.3905 19.8163L28.1297 17.223C28.069 17.4229 28.0376 17.6326 28.0396 17.8463V17.86C28.0376 18.1698 28.0376 18.4853 28.0396 18.7715H28.0454C28.6217 18.7715 29.0902 19.24 29.0902 19.8163C29.0902 20.3926 28.6217 20.8611 28.0454 20.8611H26.9908H20.7377H19.6831C19.1068 20.8611 18.6383 20.3926 18.6383 19.8163C18.6383 19.242 19.1009 18.7754 19.6753 18.7715L19.6713 18.7716ZM34.0101 4.87381C33.6024 5.28153 32.9398 5.28153 32.5321 4.87381C32.1244 4.46608 32.1244 3.80354 32.5321 3.39581L33.5769 2.35104C33.9846 1.94331 34.6472 1.94331 35.0549 2.35104C35.4626 2.75876 35.4626 3.42131 35.0549 3.82903L34.0101 4.87381ZM34.3159 8.31595C33.7396 8.31595 33.2711 7.84747 33.2711 7.27118C33.2711 6.69489 33.7396 6.2264 34.3159 6.2264H35.3607C35.937 6.2264 36.4055 6.69489 36.4055 7.27118C36.4055 7.84746 35.937 8.31595 35.3607 8.31595H34.3159ZM15.1923 3.39581C15.6 3.80354 15.6 4.46608 15.1923 4.87381C14.7845 5.28153 14.122 5.28153 13.7143 4.87381L12.6695 3.82903C12.2618 3.42131 12.2618 2.75876 12.6695 2.35104C13.0772 1.94331 13.7398 1.94331 14.1475 2.35104L15.1923 3.39581ZM13.4085 6.22635C13.9847 6.22635 14.4532 6.69484 14.4532 7.27113C14.4532 7.84741 13.9847 8.3159 13.4085 8.3159H12.3637C11.7874 8.3159 11.3189 7.84741 11.3189 7.27113C11.3189 6.69484 11.7874 6.22635 12.3637 6.22635H13.4085Z" fill="#1A2332"/>
</svg>
