<svg width="48" height="48" viewBox="0 0 48 48" fill="none" xmlns="http://www.w3.org/2000/svg">
<path d="M43.0725 17.9857C42.0076 14.5609 40.0326 11.4897 37.3582 9.09998C33.6864 5.81224 28.9298 3.9961 24.0011 4.00001C23.5059 4.00001 23.0297 4.00001 22.5726 4.00001C19.852 4.19466 17.2 4.94375 14.7795 6.2012C12.3591 7.45866 10.2215 9.19791 8.49813 11.312C6.77473 13.4261 5.50197 15.8704 4.75812 18.4946C4.01427 21.1187 3.81503 23.8673 4.17267 26.5713C4.23934 27.0951 4.32505 27.6142 4.42982 28.1285C4.55839 28.7713 4.7441 29.3999 4.92981 30.0285C5.83225 32.8995 7.37595 35.5277 9.44408 37.7141C11.3064 39.7084 13.5609 41.2961 16.0659 42.3778C18.571 43.4595 21.2726 44.0117 24.0011 43.9998C27.1424 43.9994 30.2393 43.259 33.0411 41.8387C35.8429 40.4185 38.2708 38.3582 40.128 35.8248C41.9852 33.2915 43.2196 30.3563 43.7312 27.257C44.2428 24.1577 44.0171 20.9815 43.0725 17.9857ZM11.2726 35.4284L10.9012 34.9999L10.5441 34.5713L10.0869 33.9999L9.7155 33.5284C9.57265 33.3142 9.44408 33.1142 9.31551 32.8999L9.01551 32.4142C8.88694 32.1999 8.78694 31.9713 8.67265 31.757L8.41551 31.257C8.31551 31.0284 8.21551 30.7999 8.11551 30.557C8.01551 30.3142 7.97266 30.2142 7.90123 30.0427C7.8298 29.8713 7.7298 29.5427 7.64409 29.2856C7.55837 29.0285 7.5298 28.957 7.48694 28.7999V28.557C9.66827 29.1931 11.929 29.5153 14.2012 29.5142C19.2678 29.4903 24.1991 27.8769 28.2999 24.9012C32.4007 21.9256 35.4641 17.7379 37.0582 12.9285C37.2011 13.0857 37.3154 13.2571 37.4439 13.4285C37.7439 13.8142 38.0582 14.2 38.3297 14.6142C38.6011 15.0285 38.6297 15.1285 38.7725 15.3857C38.9154 15.6428 39.2296 16.1571 39.4296 16.5714C39.6296 16.9857 39.6725 17.1571 39.7868 17.4428C39.9011 17.7285 40.0725 18.1285 40.1868 18.4857C38.7381 23.5564 35.6781 28.0178 31.4694 31.1956C27.2607 34.3734 22.132 36.0949 16.8583 36.0998C14.9766 36.0949 13.1019 35.8695 11.2726 35.4284ZM13.0869 18.9428C16.7254 18.9432 20.295 17.951 23.4114 16.0731C26.5278 14.1952 29.0729 11.5028 30.7725 8.2857L31.0868 8.41427L31.5297 8.64284C31.8583 8.79998 32.1868 8.97141 32.5011 9.14284L33.0011 9.45712L33.844 10.0143L34.344 10.3857L34.744 10.7143C33.5587 15.2659 30.9012 19.2976 27.1855 22.1813C23.4698 25.065 18.9046 26.6386 14.2012 26.657C11.7287 26.6779 9.27193 26.262 6.94409 25.4285C6.94409 24.9713 6.85837 24.4999 6.85837 23.9999C6.86728 22.0512 7.21035 20.1184 7.87266 18.2857C9.57363 18.7364 11.3273 18.9574 13.0869 18.9428ZM25.8154 6.97142H26.3154C26.8011 7.03809 27.2773 7.1238 27.744 7.22856H28.0011C26.5275 9.89784 24.3685 12.1258 21.7469 13.6827C19.1253 15.2396 16.1359 16.0691 13.0869 16.0857C11.7294 16.0859 10.3769 15.9228 9.05836 15.6L9.15836 15.4285C9.49535 14.8354 9.86744 14.263 10.2726 13.7142L10.3869 13.5714C10.8297 13.0137 11.3068 12.4841 11.8155 11.9857C12.3047 11.4779 12.8247 11.0008 13.3726 10.5571L13.5441 10.4143C14.0697 10.0114 14.6182 9.63936 15.1869 9.29998L15.4298 9.15712C15.9984 8.83335 16.585 8.5424 17.1869 8.2857L17.4869 8.15713C18.0931 7.90751 18.7132 7.69287 19.344 7.51427L19.6297 7.44285C20.2829 7.26568 20.9459 7.12734 21.6154 7.02856H21.8297C23.153 6.86017 24.4922 6.86017 25.8154 7.02856V6.97142ZM24.0011 41.1427C21.0359 41.1508 18.1202 40.3824 15.544 38.9141H16.8583C21.9015 38.9147 26.8452 37.5103 31.1348 34.8583C35.4245 32.2063 38.8904 28.4116 41.1439 23.8999C41.1439 23.8999 41.1439 23.8999 41.1439 23.9999C41.1439 28.5465 39.3378 32.9068 36.1229 36.1217C32.908 39.3366 28.5477 41.1427 24.0011 41.1427Z" fill="#1A2332"/>
</svg>
