<svg width="48" height="48" viewBox="0 0 48 48" fill="none" xmlns="http://www.w3.org/2000/svg">
<path d="M12.9385 15.2483C13.2649 15.3007 13.4869 15.6077 13.4346 15.9339C13.1064 17.9802 13.4031 19.8887 14.3164 21.6058C14.4716 21.8977 14.361 22.2601 14.0693 22.4153C13.9797 22.4629 13.8836 22.4856 13.7891 22.4856C13.5749 22.4856 13.3673 22.3704 13.2598 22.1683C12.221 20.2153 11.8824 18.0539 12.2529 15.7444C12.3052 15.418 12.6108 15.1954 12.9385 15.2483Z" fill="#1A2332"/>
<path fill-rule="evenodd" clip-rule="evenodd" d="M24.0664 2.46513C31.8689 2.46513 38.2168 8.81306 38.2168 16.6155C38.2168 20.7004 36.8319 24.0473 34.1162 26.5794C34.155 26.5931 34.1866 26.604 34.2275 26.6185C36.0624 27.2673 39.8816 28.6174 41.4307 31.5149C41.5867 31.8066 41.4762 32.1694 41.1846 32.3255C41.0947 32.3732 40.9984 32.3958 40.9033 32.3958C40.6894 32.3958 40.4826 32.2811 40.375 32.0794C39.0446 29.591 35.521 28.3459 33.8281 27.7474C33.474 27.6217 33.1901 27.5204 33.0049 27.4397L32.9004 27.3811C32.5062 27.1047 29.6113 26.0398 29.125 25.8899L23.9873 24.1995C23.8263 24.1489 23.6525 24.1214 23.4795 24.1214C22.7296 24.1216 22.0747 24.6027 21.8486 25.3186C21.7093 25.7546 21.7476 26.2167 21.957 26.6214C22.1675 27.0279 22.5239 27.3278 22.96 27.4651L30.4248 29.8304C30.4339 29.8333 30.4404 29.8408 30.4492 29.844C30.4898 29.859 30.5237 29.8826 30.5596 29.9056C30.5897 29.9249 30.6216 29.9403 30.6475 29.9642C30.6761 29.9906 30.6967 30.0234 30.7197 30.055C30.7419 30.0855 30.7662 30.1137 30.7822 30.1477C30.7975 30.1802 30.8032 30.2159 30.8125 30.2513C30.8232 30.2918 30.8349 30.3308 30.8369 30.3733C30.8374 30.3828 30.8427 30.3911 30.8428 30.4007V37.9661C30.8428 38.9364 30.05 39.7268 29.0762 39.7268H25.5371C26.3046 40.2511 26.8105 41.1317 26.8105 42.1292C26.8105 43.0168 26.4023 43.8033 25.7734 44.3372C28.2203 45.1657 30.8204 45.3176 33.208 44.7532C37.9881 43.6249 40.9505 41.4625 40.9912 41.4319C41.2577 41.235 41.6327 41.2913 41.8291 41.556C42.0255 41.8219 41.9695 42.1968 41.7041 42.3938C41.5723 42.4913 38.5061 44.7324 33.4824 45.9183C32.4403 46.1643 31.3618 46.2864 30.2734 46.2864C28.2288 46.2864 26.1473 45.8562 24.1973 45.014L24.1846 45.0091C24.09 45.0184 23.9983 45.0374 23.9014 45.0374H17.4932C15.8894 45.0371 14.585 43.733 14.585 42.1292C14.585 41.4778 14.8079 40.8821 15.1709 40.3968C13.6664 40.287 12.4718 39.0411 12.4717 37.5091C12.4717 36.4465 13.0504 35.5245 13.9033 35.0169C13.3288 34.4853 12.963 33.7316 12.9629 32.889C12.9629 31.285 14.2681 29.9798 15.8721 29.9798H17.7275V29.2571C12.9767 26.8703 9.92285 21.9549 9.92285 16.6155C9.92287 8.8131 16.2672 2.4652 24.0664 2.46513ZM17.4932 40.4173C16.5496 40.4175 15.7822 41.1859 15.7822 42.1292C15.7823 43.0724 16.5497 43.8408 17.4932 43.8411H23.9014C24.8454 43.8411 25.6132 43.0726 25.6133 42.1292C25.6133 41.1857 24.8454 40.4173 23.9014 40.4173H17.4932ZM15.3809 35.7972C14.4368 35.7972 13.6689 36.5656 13.6689 37.5091C13.6691 38.4524 14.4369 39.22 15.3809 39.22H23.4492C24.3931 39.2199 25.161 38.4523 25.1611 37.5091C25.1611 36.5657 24.3931 35.7973 23.4492 35.7972H15.3809ZM27.8086 30.2571C27.0059 30.4787 26.1822 30.6263 25.3457 30.7015C25.9604 31.2351 26.3584 32.0128 26.3584 32.889C26.3583 33.8341 25.8977 34.667 25.1973 35.1985C25.8979 35.7301 26.3584 36.5637 26.3584 37.5091C26.3584 37.8694 26.2834 38.2109 26.1631 38.5296H29.0762C29.3901 38.5296 29.6455 38.2765 29.6455 37.9661V30.8392L27.8086 30.2571ZM15.8721 31.177C14.928 31.177 14.1602 31.9455 14.1602 32.889C14.1603 33.8323 14.9281 34.5999 15.8721 34.5999H23.4492C24.393 34.5998 25.161 33.8322 25.1611 32.889C25.1611 31.9456 24.3931 31.1772 23.4492 31.177H18.335C18.3319 31.1771 18.3292 31.179 18.3262 31.179C18.3232 31.1789 18.3204 31.1771 18.3174 31.177H15.8721ZM18.9248 29.9798H19.4121C19.2487 29.9225 19.0864 29.8616 18.9248 29.7981V29.9798ZM24.0664 3.6624C16.9275 3.66247 11.1192 9.47305 11.1191 16.6155C11.1191 21.6218 14.0482 26.2277 18.5801 28.3499C20.2977 29.1583 22.1433 29.5686 24.0664 29.5686C24.5131 29.5686 24.9564 29.5375 25.3965 29.4925L22.5986 28.6067C21.8574 28.3729 21.2522 27.8632 20.8945 27.1722C20.7211 26.8371 20.6189 26.4788 20.584 26.1145C18.9642 24.9061 17.6199 22.8941 16.876 20.5237C15.3562 15.7116 16.6255 11.0421 19.7666 9.89384C21.1952 9.37097 22.7875 9.66697 24.2871 10.7259C25.777 9.66535 27.3646 9.36811 28.7979 9.89384C31.8924 11.0246 33.1947 15.7938 31.7002 20.5247C31.1892 22.1284 30.3957 23.586 29.4316 24.7308L29.4883 24.7493C29.7069 24.8166 31.7879 25.5501 32.9375 26.0657L33.0244 25.9651C35.713 23.6066 37.0195 20.5484 37.0195 16.6155C37.0195 9.47301 31.2089 3.6624 24.0664 3.6624ZM28.3867 11.0188C27.4164 10.6635 26.3218 10.8437 25.248 11.5218C26.0009 12.2215 26.6504 13.0353 27.1484 13.9065C28.0637 15.5309 28.2686 17.3679 27.7139 18.9505C27.0755 20.7508 25.729 21.9134 24.2822 21.9134C22.7452 21.9134 21.3811 20.5731 20.8076 18.4993C20.3812 16.9637 20.5922 15.2828 21.3857 13.889C21.8624 13.0473 22.5107 12.2517 23.3164 11.5179C22.2363 10.8443 21.1408 10.6656 20.1787 11.0179C17.6821 11.93 16.7129 16.0334 18.0176 20.1643C18.6071 22.0424 19.5989 23.6575 20.7949 24.7415C21.2368 23.6497 22.2832 22.9243 23.4795 22.9241C23.7747 22.9241 24.0695 22.9701 24.3545 23.0599L28.1934 24.3226C29.2031 23.257 30.0375 21.7973 30.5586 20.1624C31.8626 16.035 30.8885 11.933 28.3867 11.0188ZM24.2812 12.261C23.4943 12.9492 22.8719 13.694 22.4268 14.4798C21.789 15.5997 21.62 16.9477 21.9619 18.179C22.3816 19.6965 23.3136 20.7161 24.2822 20.7161C25.2011 20.7161 26.1261 19.8459 26.585 18.552C27.025 17.2966 26.8513 15.8185 26.1074 14.4974C25.5436 13.5112 24.8526 12.769 24.2812 12.261Z" fill="#1A2332"/>
<path d="M31.9023 32.3069C32.2226 32.2286 32.5466 32.4308 32.6221 32.7522C32.632 32.7943 33.6614 36.9937 37.3369 38.181C37.6513 38.2821 37.8243 38.6189 37.7227 38.9339C37.6408 39.1869 37.4063 39.3478 37.1533 39.3479C37.0925 39.3479 37.0301 39.3395 36.9688 39.3196C32.6425 37.9229 31.5036 33.2298 31.4561 33.0247C31.3813 32.7034 31.5811 32.3825 31.9023 32.3069Z" fill="#1A2332"/>
<path d="M9.41406 25.3606C9.70073 25.1972 10.0667 25.295 10.2314 25.5813C10.3958 25.8679 10.2969 26.2339 10.0107 26.3987L3.29102 30.2601C3.1969 30.3138 3.09429 30.3401 2.99316 30.3401C2.78599 30.3401 2.58438 30.2322 2.47363 30.0393C2.30922 29.7529 2.40797 29.3868 2.69434 29.222L9.41406 25.3606Z" fill="#1A2332"/>
<path d="M39.5645 25.2435C39.7293 24.9567 40.0937 24.8576 40.3818 25.0227L47.1006 28.8841C47.3876 29.0489 47.4871 29.415 47.3223 29.7015C47.2112 29.8943 47.0092 30.0013 46.8018 30.0013C46.7008 30.0012 46.5988 29.9758 46.5049 29.9222L39.7852 26.0608C39.4982 25.896 39.3996 25.5299 39.5645 25.2435Z" fill="#1A2332"/>
<path d="M7.31836 15.2405C7.6487 15.2408 7.91602 15.5088 7.91602 15.8392C7.91593 16.1695 7.64865 16.4375 7.31836 16.4378H0.598633C0.268129 16.4378 8.98052e-05 16.1696 0 15.8392C0 15.5086 0.268074 15.2405 0.598633 15.2405H7.31836Z" fill="#1A2332"/>
<path d="M47.4014 14.9026C47.7322 14.9026 48 15.1707 48 15.5013C47.9999 15.8318 47.7322 16.0999 47.4014 16.0999H40.6816C40.351 16.0997 40.0841 15.8316 40.084 15.5013C40.084 15.1708 40.351 14.9029 40.6816 14.9026H47.4014Z" fill="#1A2332"/>
<path d="M2.47363 1.63896C2.63876 1.35226 3.00547 1.25277 3.29102 1.41728L10.0098 5.27958C10.2963 5.44433 10.3956 5.80963 10.2314 6.09599C10.1208 6.28845 9.91897 6.3966 9.71191 6.39677C9.61088 6.39677 9.50782 6.37164 9.41406 6.31767L2.69434 2.45634C2.40768 2.29154 2.30924 1.92536 2.47363 1.63896Z" fill="#1A2332"/>
<path d="M46.5049 1.07939C46.7924 0.915038 47.1569 1.01375 47.3223 1.30009C47.4871 1.5868 47.3876 1.95264 47.1006 2.11747L40.3818 5.97978C40.2877 6.03356 40.1851 6.05888 40.084 6.05888C39.8766 6.05885 39.6755 5.95154 39.5645 5.75907C39.3997 5.47245 39.4984 5.10661 39.7852 4.94169L46.5049 1.07939Z" fill="#1A2332"/>
</svg>
