<svg width="32" height="32" viewBox="0 0 32 32" fill="none" xmlns="http://www.w3.org/2000/svg">
<g opacity="0.9">
<path d="M24.6328 24.5731L26.1631 24.7704L26.8057 24.9686L26.7559 27.6346L25.4219 27.2889L22.8545 27.0907L21.0771 27.2391L19.5479 27.5848L18.166 28.0301L17.1777 28.4256L15.1045 27.6346L12.5859 27.1405H9.67285L7.74805 27.4862V24.9188C7.78885 24.9143 10.4154 24.6221 10.5625 24.5731C10.7124 24.524 13.4564 24.6707 13.4756 24.6717L15.2529 25.1161L16.8809 25.7098L17.3262 25.8573L19.7451 24.9686L22.6582 24.5233L24.6328 24.5731Z" fill="#1B3882" fill-opacity="0.5"/>
<path d="M6.09863 7.95396L6.91699 8.37876L8.0625 8.80259L9.59863 8.96665L10.0234 9.09751L9.5957 9.47935L10.6143 9.25865L9.79688 10.6961L9.10938 11.3836L7.67188 13.3788L7.01758 14.3602L6.26562 14.8836L5.1875 15.6024C5.1875 15.6024 4.24098 15.7969 4.14062 15.8309C4.04496 15.8643 3.27263 15.9925 3.25781 15.995L2.57031 15.9618L2.04688 15.7977L2.53613 14.8163L2.60156 14.0975V13.2528L3.71387 13.578L4.98926 13.5135L5.90625 12.8905L6.8877 12.0077L7.60645 11.0262L7.60938 11.0223L7.60352 11.0272L7.11426 10.993L6.00195 10.7645L4.92383 10.3397L3.94238 9.84947L4.75977 9.36021L5.08594 8.86998L5.34668 8.34751L5.44531 7.59654V7.59458L6.09863 7.95396Z" fill="#1B3882" fill-opacity="0.5"/>
<path d="M17.2314 2.99986C18.1749 3.0066 18.9864 3.24727 19.667 3.72349C20.3341 4.20869 20.6616 4.79081 20.6504 5.4647C20.6414 5.70501 20.6076 5.94783 20.5537 6.19712C18.5815 5.25827 16.3419 5.19277 13.8418 5.99693C13.8149 5.81953 13.7972 5.62861 13.7949 5.41978C13.8039 4.75046 14.1452 4.17751 14.8145 3.69908C15.4793 3.22516 16.2881 2.99318 17.2314 2.99986Z" fill="#1B3882" fill-opacity="0.5"/>
<path d="M13.2178 20.0618C13.4985 20.0528 13.7481 20.1427 13.9727 20.3313C14.1813 20.5648 14.2842 20.8413 14.2842 21.1399C14.2864 21.4385 14.1808 21.6898 13.9697 21.9211H13.9678C13.7679 22.1503 13.516 22.2608 13.2061 22.2698C12.9051 22.2899 12.6513 22.1884 12.4492 21.966C12.2404 21.7549 12.1348 21.5011 12.1348 21.2024C12.1393 20.8925 12.2423 20.6183 12.4512 20.3869C12.6556 20.2005 12.91 20.0932 13.2178 20.0618Z" fill="#1B3882"/>
<path d="M21.2188 20.051C21.5107 20.042 21.7628 20.1427 21.9717 20.3537C22.1828 20.5761 22.2861 20.8304 22.2861 21.1291H22.2881C22.2858 21.4255 22.1808 21.6908 21.9697 21.9221C21.7609 22.1512 21.509 22.2697 21.2148 22.2698C20.9138 22.29 20.6572 22.1894 20.4482 21.967C20.2439 21.7559 20.1436 21.5016 20.1436 21.2141C20.1436 20.9154 20.2443 20.6502 20.4531 20.3987C20.6664 20.1899 20.9202 20.0713 21.2188 20.051Z" fill="#1B3882"/>
<path d="M21.6055 15.2961C22.0098 15.0356 22.2034 15.2105 22.2686 15.2981C22.3965 15.4732 22.3334 15.7246 22.1113 15.9065C21.9474 16.0435 20.9435 16.9848 20.4717 17.5442C20.0044 18.0968 19.696 18.4631 19.2939 19.3459C19.2086 19.5323 19.04 19.6428 18.8604 19.6428C18.8021 19.6428 18.7438 19.6313 18.6855 19.6067C18.4474 19.5056 18.2748 19.1816 18.459 18.7121C18.9624 17.4185 20.7855 15.8241 21.6055 15.2961Z" fill="#1B3882"/>
<path d="M11.9941 15.2346C12.0595 15.1469 12.2546 14.9747 12.6562 15.2395C13.4694 15.7786 15.2733 17.3959 15.7607 18.6965C15.9381 19.1682 15.7605 19.4893 15.5225 19.5881C15.4664 19.6105 15.4099 19.6213 15.3516 19.6213C15.1698 19.6212 15.0013 19.5091 14.916 19.3205C14.5275 18.4335 14.2218 18.0653 13.7637 17.5061C13.2988 16.9424 12.309 15.9854 12.1445 15.8479C11.9266 15.6614 11.8639 15.4098 11.9941 15.2346Z" fill="#1B3882"/>
<path d="M17.2627 2.70726C18.2646 2.71624 19.139 2.97693 19.8623 3.4846C20.6124 4.03039 20.9831 4.69766 20.9697 5.468C20.9607 5.67466 20.9379 5.88165 20.8975 6.10179L20.8955 6.1057C21.0797 6.39547 20.9377 6.87452 20.8613 7.11937V7.19554L20.8096 7.24925C20.751 7.40101 20.6766 7.53048 20.5889 7.63792C21.06 7.76603 21.5312 7.91571 22.001 8.093C22.6996 8.38502 23.3174 8.71788 23.8633 9.093C25.094 9.9958 25.4132 10.1148 25.8242 11.6399C25.9882 12.5495 26.116 13.5197 25.9072 14.2834C25.8603 14.4547 25.7884 14.641 25.708 14.8274C26.0149 14.8114 26.3083 14.8816 26.5859 15.0403C26.9183 15.2312 27.1402 15.51 27.248 15.8694V15.883H27.2461C27.3426 16.1975 27.3635 16.5186 27.3096 16.842C27.3051 16.9004 27.2907 16.9586 27.2705 17.0237C27.2301 17.1719 27.1539 17.3453 27.0371 17.552C26.9473 17.7203 26.8752 17.8684 26.8213 17.9963C26.7944 18.0681 26.7855 18.1403 26.8057 18.2121V18.2278L26.8398 18.4299C26.9813 18.7757 27.0014 19.1016 26.9004 19.4026C26.7948 19.708 26.6105 19.9349 26.3545 20.0764C26.1815 20.173 25.9791 20.2339 25.75 20.2541C25.6535 20.2609 25.5545 20.2635 25.4512 20.259C25.1953 20.2501 24.9682 20.1654 24.7773 20.0159C24.755 20.1913 24.7343 20.3767 24.708 20.5715C24.4655 22.3721 22.682 23.571 21.21 24.1936C24.2021 23.8208 26.5356 24.551 26.6777 24.5969L26.9629 24.6887V28.094L26.4238 27.9192C26.3769 27.9035 21.6596 26.4375 17.1885 28.8547L17.1729 28.885V28.8918C17.1638 28.8868 17.1546 28.8821 17.1455 28.8772C17.1354 28.8827 17.1253 28.8882 17.1152 28.8938L17.1172 28.8918L17.0938 28.8498C12.6343 26.4412 7.93013 27.8966 7.86719 27.9172L7.32812 28.0871V24.6819L7.61328 24.5901C7.76512 24.5406 10.3543 23.732 13.583 24.26C12.4877 23.8086 11.5645 23.1665 10.7852 22.3147C10.1922 21.6662 9.89762 21.0301 9.74023 20.3889C9.55432 20.5387 9.32842 20.6257 9.06836 20.6389C8.94486 20.6479 8.83005 20.6462 8.71777 20.635C8.51348 20.6148 8.32933 20.5651 8.16992 20.4866C7.8959 20.3495 7.70284 20.127 7.59277 19.8215C7.48499 19.534 7.49873 19.2057 7.63574 18.8508C7.64256 18.819 7.66014 18.7361 7.67578 18.6467L7.68066 18.6203C7.69639 18.5417 7.69141 18.4801 7.66895 18.4397L7.66504 18.4289C7.64931 18.3975 7.59514 18.3027 7.41992 18.0129C7.30543 17.8198 7.22157 17.6401 7.16992 17.4807C7.15206 17.427 7.14079 17.3688 7.13184 17.3196C7.06445 16.9961 7.07616 16.6675 7.16602 16.3508C7.27159 15.9872 7.48927 15.7064 7.8125 15.5178C7.99219 15.4151 8.17752 15.3471 8.36621 15.3127C8.19699 14.896 8.06133 14.398 8.00391 13.8215C7.99253 13.7063 7.99441 13.5898 8.00488 13.4729C7.39893 14.3467 6.75023 15.0202 6.06348 15.4768C5.3065 16.0068 4.28905 16.2737 3.03125 16.2737C3.00889 16.2737 2.98638 16.2719 2.96387 16.2717L2.96289 16.2746C2.61696 16.2746 2.25297 16.2545 1.87109 16.2141L1.15234 16.1301L1.50684 15.9035L1.69629 15.6994C1.72327 15.659 1.79715 15.5285 1.92285 15.2502C2.12502 14.8144 2.19444 14.0865 2.13379 13.0891L2.09082 12.4172L2.6084 12.8469C3.1496 13.2935 3.82779 13.4013 4.67871 13.1701C5.39002 12.9666 6.15803 12.3317 6.9668 11.2844C5.94823 11.1914 4.87897 10.8164 3.7832 10.1643L3.32715 9.89476L3.79883 9.65648C5.35663 8.86962 5.01801 7.25775 5.00098 7.18187L4.88867 6.35277L5.4834 6.9973L5.52441 7.04027C5.87015 7.41063 6.25631 7.71583 6.67383 7.94261C8.01309 8.6971 9.36513 8.86502 11.6689 8.31859C12.042 8.13459 12.4407 7.96533 12.8691 7.81663C13.2038 7.71261 13.5389 7.62143 13.873 7.54124C13.7389 7.35054 13.6338 7.15314 13.5635 6.94652V6.93968C13.4871 6.69049 13.4493 6.43222 13.4492 6.17406V6.16234C13.4537 6.06351 13.4919 5.97103 13.5615 5.88792C13.5436 5.72854 13.5322 5.57573 13.5322 5.42308V5.41624C13.5413 4.65264 13.925 3.99669 14.6729 3.46214C15.3894 2.95228 16.2587 2.69833 17.2627 2.70726ZM17.0889 26.302C13.253 24.2344 9.24103 25.0211 8.15234 25.2932V26.9826C9.53502 26.6533 13.3395 26.0361 17.1514 27.9446C20.9593 26.0436 24.7577 26.6605 26.1387 26.9895V25.3C25.0494 25.0255 21.0278 24.2393 17.1904 26.3147L17.1729 26.3469C17.1657 26.343 17.1585 26.3391 17.1514 26.3352C17.14 26.3414 17.1285 26.3475 17.1172 26.3537L17.0889 26.302ZM18.4775 24.8401C18.034 24.8795 17.565 24.9026 17.1016 24.9026V24.9045C16.6673 24.9045 16.2368 24.8843 15.8359 24.843C16.2715 25 16.7109 25.1858 17.1504 25.4055C17.594 25.184 18.038 24.9976 18.4775 24.8401ZM21.5381 11.5901C20.5229 11.2689 19.7525 11.4425 18.9395 11.9524C18.5082 12.2219 17.9123 12.6196 17.499 12.633C17.0856 12.644 16.2636 12.0979 15.792 11.8957C14.0175 10.9883 12.6808 11.7474 12.418 11.8215H12.4141C11.0595 12.455 10.2005 13.4486 9.83887 14.7942C9.77446 15.0336 9.72201 15.2425 9.68555 15.4426C9.88681 16.2153 10.1405 17.3137 10.2031 18.1701C10.2166 18.3363 10.2254 18.5006 10.2344 18.6623C10.3063 19.8641 10.3628 20.8145 11.3018 21.841C12.2699 22.9012 13.4874 23.6084 15.0215 23.9993C16.3221 24.334 18.6651 24.231 19.8916 23.9143C20.9473 23.6447 23.7465 22.497 24.0186 20.4778C24.3055 18.3551 24.3414 17.3951 24.3438 17.3821V17.3528L24.7676 15.3762C24.6647 15.0999 24.5636 14.8258 24.416 14.4455V14.4475C23.9241 13.1065 23.0161 12.055 21.5381 11.5901ZM8.75 16.051C8.5446 16.0338 8.36935 16.0736 8.21973 16.1741C8.05585 16.2908 7.95249 16.4341 7.90527 16.6203C7.85139 16.8314 7.84206 17.0135 7.87793 17.1662C7.9251 17.3482 7.98173 17.5039 8.04688 17.6252L8.2168 17.9485C8.38297 18.2629 8.43226 18.5455 8.36719 18.7903C8.32451 18.9475 8.29531 19.1032 8.27734 19.2493C8.2707 19.3034 8.27796 19.4248 8.40332 19.6487C8.44824 19.734 8.54288 19.8484 8.82812 19.8596C9.05725 19.8686 9.2327 19.8058 9.36523 19.6643C9.50664 19.5183 9.56728 19.3562 9.56055 19.1496C9.55613 19.1318 9.55622 19.1114 9.55176 19.0891V19.0754C9.54287 19.0089 9.53359 18.9732 9.53125 18.9573L9.54297 18.8235C9.54058 18.7842 9.5385 18.7448 9.53613 18.7053C9.52715 18.5481 9.51611 18.3859 9.50488 18.2219C9.47068 17.7495 9.36874 17.1857 9.25293 16.6487C9.09856 16.5161 8.92258 16.3155 8.75 16.051ZM26.166 15.676C25.9908 15.548 25.8105 15.51 25.6016 15.5549H25.5859C25.5334 15.5627 25.4833 15.5708 25.4355 15.5793L25.0381 17.4407C25.0332 17.5416 25.0135 17.8691 24.9561 18.4602L24.959 18.5744C24.9567 18.5882 24.95 18.6197 24.9434 18.6838L24.9395 18.7493C24.9372 18.9738 25.0019 19.1716 25.1455 19.3557C25.2286 19.459 25.3704 19.5733 25.6826 19.4993C25.8196 19.4656 26.0552 19.3894 26.1025 19.2502V19.2434C26.1564 19.0862 26.1721 18.9561 26.1475 18.8528C26.1138 18.7045 26.0849 18.5313 26.0557 18.3225C26.022 18.0822 26.0623 17.8529 26.1768 17.6418C26.2509 17.5003 26.3279 17.3453 26.4043 17.1858C26.4671 17.0467 26.5226 16.8827 26.5742 16.6965C26.6147 16.5483 26.6063 16.3812 26.5479 16.1858C26.476 15.977 26.3501 15.8107 26.166 15.676ZM9.76074 9.63206C8.86895 10.0252 8.16304 10.6095 7.61719 11.3957L7.6123 11.4016C6.65088 12.7134 5.74121 13.4753 4.83594 13.7336C4.03642 13.9492 3.33346 13.9113 2.73828 13.6194C2.75174 14.4391 2.65719 15.0567 2.45508 15.4924C2.42717 15.559 2.399 15.6153 2.37305 15.6672C2.63777 15.6859 2.89164 15.6947 3.13477 15.6916C4.19323 15.6699 5.04098 15.44 5.66504 15.0002L5.66992 14.9963C6.41564 14.4999 7.12567 13.7138 7.7793 12.6604C7.79271 12.6246 7.80805 12.5952 7.82812 12.5705C7.94493 12.3818 8.05526 12.1879 8.16309 11.9993C8.62804 11.1053 9.16552 10.3104 9.76074 9.63206ZM5.68555 7.98363C5.72366 8.60805 5.46093 9.30463 4.51758 9.91331C5.51814 10.4405 6.48279 10.7081 7.39355 10.7219C7.904 10.0902 8.53381 9.586 9.27832 9.21507C8.1685 9.20718 7.26672 8.94378 6.3916 8.45042C6.14675 8.31789 5.91018 8.16109 5.68555 7.98363ZM20.4082 6.43382C18.5438 5.56678 16.4007 5.50455 14.0332 6.25023C14.0332 6.29503 14.0417 6.48685 14.042 6.49242L14.2012 6.95726C14.2012 6.95726 14.3606 7.23117 14.4707 7.36156L14.6299 7.37913C15.5714 7.20388 16.51 7.12424 17.4434 7.14085C18.1579 7.17239 18.8702 7.25904 19.5811 7.39964L19.6484 7.41136C19.9259 7.45797 20.1795 7.09675 20.1855 7.08812L20.3809 6.66331L20.3828 6.66527C20.3838 6.65819 20.4104 6.46689 20.4082 6.43382ZM20.5557 7.09691H20.5605L20.5557 7.09202V7.09691ZM17.2559 3.28929C16.3777 3.28262 15.6229 3.4981 15.0098 3.93382L15.0078 3.93577C14.4103 4.36033 14.1184 4.84831 14.1094 5.42113C14.1116 5.48399 14.1137 5.55134 14.1182 5.61644C15.1762 5.30645 16.1917 5.15159 17.1621 5.15159C18.2919 5.15162 19.3588 5.36076 20.3584 5.77855C20.3719 5.66623 20.3812 5.55795 20.3857 5.45238C20.3947 4.87962 20.1112 4.38725 19.5205 3.95824C18.9006 3.52256 18.1363 3.29603 17.2559 3.28929Z" fill="#1B3882"/>
</g>
</svg>
