<svg width="40" height="40" viewBox="0 0 40 40" fill="none" xmlns="http://www.w3.org/2000/svg">
<g opacity="0.9">
<path d="M8.43481 31.1485C8.43481 31.1485 11.7678 30.7778 11.9531 30.716C12.1385 30.6543 15.595 30.8396 15.595 30.8396L17.816 31.3956L19.8518 32.1369L20.4077 32.3222L23.4318 31.2102L27.0737 30.6543L29.5419 30.716L31.454 30.9631L32.2571 31.2102L32.1953 34.5432L30.5274 34.1108L27.318 33.8637L25.0969 34.049L23.1848 34.4815L21.4579 35.0374L20.2224 35.5316L17.6307 34.5432L14.483 33.9255H10.8412L8.43481 34.3579V31.1485Z" fill="#1B3882" fill-opacity="0.5"/>
<path d="M20.2167 36.1143C14.6037 33.0228 8.64254 34.876 8.58357 34.8957L7.90967 35.1091V30.8523L8.26628 30.7372C8.52461 30.6529 14.6992 28.7239 20.7137 32.0316L20.2167 32.933C15.3899 30.2767 10.3104 31.2735 8.94017 31.616V33.7276C10.7316 33.3008 15.7774 32.4865 20.7137 35.2046L20.2167 36.1059V36.1143Z" fill="#1B3882"/>
<path d="M20.1465 36.1143L19.6495 35.213C24.5858 32.4949 29.6316 33.3092 31.4231 33.736V31.6245C30.0528 31.2791 24.9705 30.2851 20.1465 32.9414L19.6495 32.04C25.6613 28.7295 31.8359 30.6614 32.097 30.7456L32.4536 30.8607V35.1175L31.7797 34.8985C31.7207 34.8788 25.7595 33.0256 20.1437 36.1171L20.1465 36.1143Z" fill="#1B3882"/>
<path d="M26.6076 26.4109C26.6076 26.0374 26.4784 25.7201 26.2145 25.4422C25.9533 25.1782 25.6389 25.0519 25.2738 25.0631C24.9004 25.0884 24.5831 25.2372 24.3163 25.4983C24.0552 25.8128 23.9288 26.1441 23.9288 26.5176C23.9288 26.877 24.0552 27.1943 24.3107 27.4582C24.5718 27.7362 24.892 27.8626 25.2682 27.8373C25.636 27.8373 25.9505 27.6885 26.2117 27.4021C26.4756 27.1129 26.6076 26.7815 26.6104 26.4109H26.6076Z" fill="#1B3882"/>
<path d="M16.2128 27.4014C16.4767 27.1122 16.6087 26.7977 16.6059 26.4243C16.6059 26.0508 16.4767 25.7054 16.2156 25.4134C15.9348 25.1776 15.6231 25.0652 15.2721 25.0765C14.8874 25.1158 14.5701 25.2506 14.3146 25.4836C14.0535 25.7728 13.9243 26.1154 13.9187 26.5029C13.9187 26.8763 14.0507 27.1936 14.3118 27.4576C14.5645 27.7356 14.8818 27.8619 15.2581 27.8366C15.6456 27.8254 15.96 27.6878 16.2099 27.4014H16.2128Z" fill="#1B3882"/>
<path d="M20.1271 31.1308C19.0966 31.1308 18.0829 31.0437 17.3079 30.8472C15.2216 30.3108 13.5594 29.3449 12.2312 27.8932C10.8497 26.3826 10.7627 24.9253 10.67 23.3809C10.6588 23.1844 10.6448 22.9822 10.6307 22.7772C10.5072 21.07 9.7013 18.4025 9.69287 18.3744L9.6283 18.1638L9.75747 17.9869C10.9452 16.3696 12.4081 15.2155 14.2361 14.4546C15.9152 13.7554 17.9116 13.3876 20.3433 13.337C24.3923 13.1012 28.8063 14.7831 30.8392 17.3411L30.9684 17.5012L30.0474 21.8001C30.0362 22.0331 29.9688 23.2405 29.6346 25.7143C29.2443 28.6121 25.6643 30.2687 23.8279 30.7376C22.8957 30.9791 21.4917 31.1279 20.1271 31.1279V31.1308ZM10.5914 18.3323C10.7908 19.0174 11.3917 21.1767 11.504 22.7126C11.5208 22.9204 11.5321 23.1254 11.5433 23.3276C11.6331 24.8298 11.7033 26.0176 12.877 27.3008C14.0873 28.6261 15.6091 29.5106 17.5269 29.9992C19.1527 30.4175 22.0814 30.2884 23.6145 29.8925C24.9342 29.5555 28.4329 28.1207 28.7726 25.5964C29.132 22.9373 29.177 21.7383 29.1798 21.7271V21.6906L30.0305 17.7258C28.6912 15.1566 27.8965 14.6287 26.195 13.9857C24.4007 13.309 22.2133 14.098 20.3882 14.2047H20.3714C15.7215 14.3058 12.3098 12.8148 10.5914 18.3295V18.3323Z" fill="#1B3882"/>
<path d="M29.2699 18.0565C29.6012 18.9101 29.7416 19.3369 30.0533 20.1175C30.0533 20.1175 30.876 18.7978 31.1344 17.8544C31.3955 16.8997 31.2354 15.6867 31.0305 14.5495C30.5166 12.6429 30.1179 12.4941 28.5792 11.3653C27.8968 10.8964 27.1247 10.4808 26.2514 10.1158C24.3617 9.40256 22.4635 9.00945 20.5541 8.92522C18.6616 8.89152 16.7522 9.17512 14.8373 9.7704C13.9471 10.0793 13.1553 10.4499 12.4533 10.8795C10.8528 11.9156 9.74091 13.3701 9.12036 15.243C8.95469 15.9478 8.69075 16.6217 8.75533 17.2759C9.05297 20.2664 11.0045 21.5805 10.8725 20.8588C10.6984 19.9294 10.8107 19.3791 11.0494 18.4918C11.5015 16.8098 12.5741 15.5687 14.2673 14.7769H14.2729C14.6014 14.6842 16.2721 13.7352 18.4903 14.8696C19.08 15.1223 20.1077 15.8046 20.6243 15.7906C21.141 15.7737 21.8851 15.2767 22.4242 14.9398C23.4407 14.3024 24.4038 14.0862 25.673 14.4877C27.5206 15.0689 28.655 16.383 29.2699 18.0593V18.0565Z" fill="#1B3882"/>
<path d="M2.00252 16.5657L3.39242 16.9728L4.98733 16.8914L6.13294 16.1136L7.36 15.0101L8.25853 13.783L9.40416 12.5981L10.5077 11.9017L12.0183 11.5732L10.9962 13.3703L10.137 14.2295L8.33996 16.7229L7.52286 17.95L6.58222 18.6042L5.23441 19.5028C5.23441 19.5028 4.04948 19.747 3.92593 19.7892C3.80519 19.8313 2.82243 19.9941 2.82243 19.9941L1.96321 19.952L1.30896 19.747L1.92108 18.52L2.00252 17.6215V16.5601V16.5657Z" fill="#1B3882" fill-opacity="0.5"/>
<path d="M5.55684 9.49595L5.43329 10.4338L5.10758 11.088L4.70043 11.7002L3.67834 12.3123L4.9054 12.9244L6.25319 13.4551L7.64311 13.7415L8.25523 13.7836L9.72657 12.7615L11.2794 11.3716L10.7487 11.2088L8.82806 11.0038L7.39601 10.4731L6.37393 9.94241L5.55684 9.49314V9.49595Z" fill="#1B3882" fill-opacity="0.5"/>
<path d="M2.45385 20.3425C2.02143 20.3425 1.56655 20.3173 1.08921 20.2667L0.190674 20.1628L0.634328 19.8792L0.870183 19.6237C0.903878 19.5732 0.996541 19.4103 1.15378 19.0621C1.4065 18.5174 1.49354 17.6076 1.41773 16.3609L1.36438 15.5213L2.01019 16.0577C2.6869 16.6164 3.5349 16.7512 4.59909 16.462C5.55097 16.1896 6.58708 15.3023 7.67655 13.8226C8.67616 12.3821 10.1166 11.4078 11.9586 10.9192L12.1327 10.8715L13.298 11.7784L12.2506 11.7026C12.1524 11.7981 12.0541 11.8991 11.967 12.0087L11.9474 12.0339L11.9193 12.0592C11.3184 13.1262 10.4592 14.1792 9.59998 15.3332L9.58873 15.3529C9.45676 15.5859 9.32199 15.8246 9.17317 16.0633V16.0745L9.12544 16.1503C8.24376 17.5823 7.27784 18.655 6.24733 19.3401C5.30107 20.0028 4.02909 20.3369 2.45666 20.3369L2.45385 20.3425ZM1.70974 19.5928C3.48715 19.7079 4.87145 19.4271 5.83175 18.7504L5.83737 18.7448C6.7696 18.1243 7.6569 17.1415 8.474 15.8246C8.49085 15.7797 8.5105 15.7432 8.53577 15.7123C8.68178 15.4764 8.81936 15.2349 8.95414 14.9991C9.53538 13.8815 10.2065 12.8875 10.9506 12.0395C9.83584 12.5309 8.95415 13.261 8.27182 14.2437L8.26622 14.2522C7.06444 15.892 5.92722 16.8439 4.79563 17.1668C3.79602 17.4363 2.91715 17.3886 2.17306 17.0236C2.1899 18.0485 2.07197 18.8206 1.81926 19.3654C1.78275 19.4524 1.74625 19.5254 1.71256 19.5928H1.70974Z" fill="#1B3882"/>
<path d="M2.5392 20.3425C2.10678 20.3425 1.6519 20.3172 1.17456 20.2666L1.25036 19.545C3.2889 19.7584 4.85854 19.4917 5.91431 18.7476L5.92273 18.742C6.85495 18.1214 7.74225 17.1386 8.55936 15.8217C8.58743 15.7403 8.63516 15.687 8.67728 15.6504L9.15182 16.2008C9.22483 16.1362 9.25572 16.052 9.26133 15.9902L9.25571 16.0772L9.20798 16.1559C8.3263 17.5879 7.36038 18.6605 6.32988 19.3457C5.38361 20.0083 4.11163 20.3425 2.5392 20.3425Z" fill="#1B3882"/>
<path d="M8.74987 13.3793C8.59543 13.3906 8.44101 13.399 8.28657 13.4046C7.06233 13.4467 5.75664 13.107 4.39761 12.3909C5.57693 11.63 5.90546 10.7596 5.85773 9.97895C6.13852 10.2008 6.43335 10.3973 6.73941 10.563C8.74145 11.6918 10.8558 11.8687 14.4696 10.8578L14.2253 10.1727C10.7912 11.119 8.93239 10.9645 7.09321 9.92841C6.57094 9.64481 6.08797 9.26294 5.65555 8.79963L5.60501 8.74628L4.86092 7.94041L5.00132 8.97653C5.02097 9.06357 5.45057 11.0853 3.49908 12.0708L2.90942 12.3685L3.47942 12.7054C5.07431 13.6545 6.62428 14.1347 8.08159 14.1347L8.75549 13.3793H8.74987Z" fill="#1B3882"/>
<path d="M17.9398 24.5269C17.7124 24.5269 17.5018 24.3865 17.3951 24.1506C16.9093 23.0415 16.5275 22.581 15.9547 21.8818C15.3734 21.177 14.1351 19.9809 13.9301 19.8096C13.6578 19.5765 13.5792 19.262 13.742 19.043C13.8235 18.9335 14.0677 18.7173 14.5703 19.0486C15.5868 19.7225 17.8416 21.7442 18.4509 23.37C18.6727 23.9597 18.4509 24.3612 18.1532 24.4847C18.083 24.5128 18.0128 24.5269 17.9398 24.5269Z" fill="#1B3882"/>
<path d="M22.3263 24.5528C22.2533 24.5528 22.1802 24.5387 22.1072 24.5079C21.8096 24.3815 21.5934 23.9772 21.8236 23.3903C22.4526 21.773 24.7326 19.7793 25.7575 19.1195C26.2629 18.7938 26.5044 19.0128 26.5859 19.1223C26.7459 19.3413 26.6673 19.6558 26.3893 19.8832C26.1843 20.0545 24.9292 21.231 24.3395 21.9302C23.7555 22.6209 23.3708 23.0786 22.8682 24.1821C22.7615 24.4152 22.5509 24.5528 22.3263 24.5528Z" fill="#1B3882"/>
<path d="M24.5636 6.83074C24.5777 5.98836 24.1677 5.26111 23.3338 4.65461C22.483 4.05933 21.4693 3.75888 20.29 3.75046C19.1107 3.74204 18.0998 4.03125 17.2687 4.62372C16.4319 5.2218 16.0051 5.93782 15.9939 6.77458C15.9967 7.03571 16.0192 7.27438 16.0529 7.49621C19.1781 6.49098 21.9776 6.57241 24.4429 7.74611C24.5103 7.43444 24.5524 7.13118 24.5636 6.83074Z" fill="#1B3882" fill-opacity="0.5"/>
<path d="M11.4983 23.7913L11.4814 23.7548C11.4393 23.6593 11.4056 23.5638 11.3747 23.4712L11.2877 23.1904L10.7092 23.21L10.6643 23.6958C10.6671 23.7154 10.6784 23.7604 10.6896 23.8446V23.8615C10.6952 23.8895 10.6952 23.9148 10.7008 23.9373C10.7093 24.1956 10.6334 24.3978 10.4565 24.5803C10.2909 24.7572 10.0719 24.8358 9.78545 24.8246C9.42885 24.8105 9.31091 24.6673 9.25475 24.5606C9.09751 24.2798 9.08909 24.1282 9.09751 24.0608C9.11997 23.8783 9.15648 23.6846 9.20983 23.488C9.29126 23.1819 9.22949 22.8281 9.02171 22.435L8.80831 22.0307C8.72688 21.8791 8.65668 21.6853 8.59771 21.4579C8.55279 21.267 8.56402 21.0395 8.63141 20.7756C8.69037 20.5425 8.81953 20.3628 9.0245 20.2168C9.22948 20.0792 9.47377 20.0287 9.76298 20.068H9.78545L9.80792 20.0708C10.0915 20.0708 10.3274 20.0989 10.5043 20.1494C10.4537 19.8714 10.4397 19.5822 10.465 19.2874C10.2768 19.2088 10.0887 19.1526 9.89777 19.1273H9.88653L9.74614 19.1161C9.32214 19.0768 8.90938 19.1723 8.51627 19.3969C8.11193 19.6328 7.83956 19.9837 7.70759 20.4386C7.59528 20.8345 7.58125 21.2445 7.66548 21.6488C7.67672 21.7106 7.69075 21.7836 7.71321 21.851C7.7778 22.0504 7.88168 22.275 8.02489 22.5165C8.2439 22.8787 8.3113 22.9966 8.33096 23.0359L8.33658 23.05C8.36466 23.1005 8.37027 23.1763 8.35061 23.2746L8.34499 23.3083C8.32534 23.4206 8.30288 23.5245 8.29445 23.5638C8.12317 24.0075 8.10632 24.4174 8.2411 24.7768C8.37869 25.1587 8.62017 25.4367 8.96274 25.608C9.1621 25.7063 9.39235 25.768 9.64787 25.7933C9.78826 25.8073 9.93146 25.8101 10.0859 25.7989C10.5829 25.7736 10.9844 25.5378 11.2512 25.125C11.5123 24.7319 11.5966 24.2967 11.5039 23.8306L11.4983 23.7913Z" fill="#1B3882"/>
<path d="M32.8107 19.8365C32.6759 19.3873 32.3979 19.0391 31.9823 18.8004C31.6089 18.587 31.213 18.5 30.7974 18.5393C30.7834 18.5393 30.7665 18.5421 30.7525 18.5449L30.6149 18.5617H30.6037C30.3397 18.6039 30.0758 18.7049 29.8175 18.8538C29.8175 18.8734 29.8231 18.8959 29.8259 18.9183C29.8511 19.1823 29.8371 19.4406 29.7922 19.6933L29.941 19.6344C30.1319 19.5585 30.3903 19.494 30.7328 19.4434H30.7525C31.0136 19.3873 31.2382 19.435 31.4573 19.595C31.6875 19.7635 31.8448 19.9713 31.9346 20.2324C32.0076 20.4767 32.0188 20.6845 31.9683 20.8698C31.9037 21.1029 31.8335 21.3079 31.7549 21.482C31.6594 21.6813 31.564 21.8751 31.4713 22.052C31.3281 22.3159 31.2776 22.6023 31.3197 22.9028C31.3562 23.1639 31.3927 23.3801 31.4348 23.5654C31.4657 23.6946 31.446 23.8575 31.3786 24.054V24.0624C31.3197 24.2365 31.0249 24.332 30.8536 24.3741C30.4633 24.4668 30.2864 24.3236 30.1825 24.1944C30.0028 23.9642 29.9213 23.7171 29.9242 23.4363L29.9298 23.3548C29.9382 23.2734 29.9466 23.2341 29.9494 23.2173L29.9382 22.7174L29.2952 22.7343L29.2278 23.0095C29.2025 23.1049 29.1716 23.1976 29.1323 23.2903L29.1155 23.3296L29.1099 23.3717C29.034 23.8294 29.1295 24.2618 29.3878 24.6633L29.3935 24.6717C29.6771 25.0789 30.0814 25.3063 30.5643 25.3232C30.6935 25.3288 30.8171 25.326 30.9378 25.3176C31.2242 25.2923 31.4769 25.2165 31.6931 25.0957C32.0132 24.9188 32.2435 24.6352 32.3755 24.2534C32.5018 23.8771 32.4765 23.47 32.2996 23.0375L32.2575 22.7848V22.7652C32.2323 22.6753 32.2435 22.5855 32.2772 22.4956C32.3446 22.3356 32.4344 22.1502 32.5467 21.9397C32.6927 21.6813 32.7882 21.4651 32.8387 21.2798C32.864 21.1984 32.8809 21.1254 32.8865 21.0524C32.9539 20.648 32.9286 20.2465 32.8079 19.8534H32.8107V19.8365Z" fill="#1B3882"/>
<path d="M24.8722 7.62688C24.9227 7.35171 24.9508 7.09338 24.962 6.83505C24.9789 5.87194 24.5156 5.03799 23.5777 4.35567C22.6736 3.72108 21.5813 3.39536 20.329 3.38413C19.0738 3.3729 17.9872 3.6902 17.0915 4.32759C16.1564 4.99587 15.6763 5.81578 15.665 6.77047V6.77889C15.665 6.96983 15.6791 7.16077 15.7016 7.36013C15.6145 7.46402 15.5668 7.57915 15.5612 7.7027V7.71674C15.5612 8.03965 15.6089 8.36255 15.7044 8.67423V8.68266C15.8391 9.07857 16.0694 9.45202 16.3895 9.8002L16.4821 9.89848L17.3273 9.99395C18.049 10.4123 19.0121 10.637 20.1942 10.6594H20.3458C21.2191 10.6594 21.9828 10.5527 22.6174 10.3449L22.6343 10.3393C22.873 10.2467 23.1032 10.1343 23.325 10.0052C23.9989 10.0698 24.5015 9.73843 24.7627 9.06172L24.8273 8.99433V8.89886C24.9227 8.5928 25.0996 7.99472 24.8694 7.6325L24.8722 7.62688ZM17.5127 4.91725C18.2792 4.37252 19.2227 4.10296 20.3206 4.11138C21.4213 4.11981 22.3759 4.4034 23.1509 4.94814C23.8894 5.48445 24.2432 6.09938 24.232 6.8154C24.2264 6.94737 24.2151 7.08215 24.1983 7.22254C22.9488 6.70027 21.615 6.43914 20.2026 6.43914C18.9896 6.43914 17.7204 6.63288 16.3979 7.02037C16.3923 6.93895 16.3895 6.85471 16.3867 6.77609C16.3979 6.06007 16.7629 5.45075 17.5098 4.92006L17.5127 4.91725ZM24.2264 8.32886L23.9821 8.85955C23.9821 8.85955 23.662 9.32286 23.311 9.26389L23.1762 9.24143L23.0583 9.31444C22.8449 9.44641 22.6202 9.55872 22.3844 9.65138C21.7919 9.84513 21.059 9.93779 20.2082 9.92656C19.1553 9.9069 18.3101 9.71597 17.698 9.36217C17.6783 9.35094 17.6615 9.3369 17.6418 9.32847L17.5688 9.28355L16.8388 9.20212C16.7012 9.03926 16.5018 8.6967 16.5018 8.6967L16.3024 8.11546C16.3024 8.11546 16.2912 7.86836 16.2912 7.8122C19.2507 6.87998 21.9295 6.9586 24.2601 8.04245C24.2629 8.08457 24.2292 8.33167 24.2292 8.33167L24.2264 8.32886ZM24.4454 8.87079V8.86517L24.451 8.87079H24.4454Z" fill="#1B3882"/>
</g>
</svg>
