<svg xmlns="http://www.w3.org/2000/svg" width="187" height="176" viewBox="0 0 187 176" fill="none">
  <path d="M39.6406 164.222C63.8711 163.385 88.3702 161.395 112.623 161.395C113.141 161.395 114.419 161.82 113.632 162.607C112.991 163.248 109.16 163.687 108.301 163.859C102.86 164.947 97.3521 165.063 91.8226 164.909C85.7601 164.741 79.9787 164.57 73.9709 165.676C67.5527 166.859 61.4646 169.492 55.069 170.604C49.4402 171.583 55.841 170.79 58.1386 170.765C71.9929 170.615 85.7414 170.514 99.6175 170.806C104.382 170.906 109.306 170.999 114.036 171.654C115.184 171.813 116.14 172.219 114.44 172.219C111.692 172.219 109.194 172.279 106.524 172.946" stroke="#B4B6BC" stroke-width="4.36196" stroke-linecap="round"/>
  <path d="M26.9336 121.379C34.8397 142.695 55.3586 157.885 79.4253 157.885C110.336 157.885 135.394 132.828 135.394 101.917L135.394 84.6549C135.394 80.0035 130.995 76.6088 126.495 77.7878L87.3855 88.0358C84.2633 88.854 82.086 91.6753 82.086 94.9029V107.52C82.086 123.71 68.9615 136.835 52.7715 136.835C41.5948 136.835 31.8789 130.58 26.9336 121.379Z" stroke="#121316" stroke-width="3.75" stroke-linejoin="round"/>
  <path d="M131.734 121.381C123.828 142.697 103.309 157.887 79.2426 157.887C48.3322 157.887 23.2744 132.829 23.2744 101.919V92.3699C23.2744 89.6538 25.1544 87.2993 27.8032 86.6982L66.5463 77.9064C70.1852 77.0806 73.6493 79.8467 73.6493 83.5781V87.1994C73.7416 96.0312 74.9895 114.745 79.2426 118.945" stroke="#121316" stroke-width="3.75" stroke-linejoin="round"/>
  <path d="M152.587 6.32629L149.262 2.74042" stroke="black" stroke-width="2.90797" stroke-linecap="round" stroke-linejoin="round"/>
  <path d="M179.719 4.53283L176.133 7.85779" stroke="black" stroke-width="2.90797" stroke-linecap="round" stroke-linejoin="round"/>
  <path d="M151.055 45.0371L147.469 48.3621" stroke="black" stroke-width="2.90797" stroke-linecap="round" stroke-linejoin="round"/>
  <path d="M174.472 44.7762L177.797 48.3621" stroke="black" stroke-width="2.90797" stroke-linecap="round" stroke-linejoin="round"/>
  <path d="M84.0101 57.4021C85.6581 55.5519 90.63 52.5763 97.334 55.4752" stroke="#AE88FF" stroke-width="3.55226" stroke-linecap="round"/>
  <path d="M108.987 50.612C110.635 48.7618 115.607 45.7862 122.311 48.6852" stroke="#AE88FF" stroke-width="3.55226" stroke-linecap="round"/>
  <circle cx="94.3421" cy="75.5433" r="11.7241" stroke="black" stroke-width="2.90797"/>
  <circle cx="118.557" cy="69.1282" r="11.7241" stroke="black" stroke-width="2.90797"/>
  <path d="M91.875 77.5497C92.4808 74.2782 95.1101 69.1893 100.781 75.0052" stroke="black" stroke-width="3.55226" stroke-linecap="round"/>
  <path d="M115.688 72.3528C116.293 69.0814 118.923 63.9924 124.593 69.8084" stroke="black" stroke-width="3.55226" stroke-linecap="round"/>
  <path d="M159.997 0L164.629 16.2313L181.002 12.1273L169.261 24.2545L181.002 36.3818L164.629 32.2777L159.997 48.509L155.365 32.2777L138.992 36.3818L150.732 24.2545L138.992 12.1273L155.365 16.2313L159.997 0Z" fill="#AE88FF"/>
  <path d="M165.469 4.13333C165.29 3.50892 164.72 3.07836 164.07 3.07836C163.421 3.07836 162.85 3.50892 162.672 4.13333L158.859 17.4945L145.381 14.1162C144.752 13.9583 144.093 14.2372 143.769 14.7995C143.444 15.3619 143.532 16.0713 143.983 16.5379L153.648 26.5207L143.983 36.5035C143.532 36.9701 143.444 37.6795 143.769 38.2419C144.093 38.8042 144.752 39.0831 145.381 38.9252L158.859 35.5469L162.672 48.9081C162.85 49.5325 163.421 49.963 164.07 49.963C164.72 49.963 165.29 49.5325 165.469 48.9081L169.282 35.5469L182.759 38.9252C183.389 39.0831 184.047 38.8042 184.372 38.2419C184.697 37.6795 184.609 36.9701 184.157 36.5035L174.493 26.5207L184.157 16.5379C184.609 16.0713 184.697 15.3619 184.372 14.7995C184.047 14.2372 183.389 13.9583 182.759 14.1162L169.282 17.4945L165.469 4.13333Z" stroke="black" stroke-width="2.90797" stroke-linejoin="round"/>
  <path d="M24.5802 26.0922L27.5877 34.2197L35.7152 37.2271L27.5877 40.2346L24.5802 48.3621L21.5728 40.2346L13.4453 37.2271L21.5728 34.2197L24.5802 26.0922Z" fill="#010101"/>
  <path d="M149.261 141.309L151.5 147.359L157.55 149.598L151.5 151.837L149.261 157.887L147.023 151.837L140.973 149.598L147.023 147.359L149.261 141.309Z" fill="#AE88FF"/>
  <path d="M3.28451 80.3867C2.31519 82.5676 0.958136 88.0201 3.28451 92.382" stroke="black" stroke-width="2.90797" stroke-linecap="round" stroke-linejoin="round"/>
  <path d="M8.73682 84.3851C8.00983 85.5968 6.99204 88.9652 8.73682 92.7456" stroke="black" stroke-width="2.90797" stroke-linecap="round" stroke-linejoin="round"/>
</svg>
