<svg width="48" height="48" viewBox="0 0 48 48" fill="none" xmlns="http://www.w3.org/2000/svg">
<path d="M22.038 35.605C21.4065 36.3308 21.2525 37.1564 22.2339 37.5643C22.3412 37.609 22.4532 37.6427 22.5659 37.669C23.5198 37.8926 24.5132 38.0108 25.5336 38.0108C32.8065 38.0108 38.7096 32.022 38.7827 24.6056C36.6832 25.3938 26.581 30.3836 22.038 35.605Z" fill="#12224A"/>
<path d="M42.7402 14.5028C42.3688 13.366 37.4998 13.7188 36.3895 14.3411C36.1816 14.4575 36.1942 14.7472 36.4303 14.7698C37.4357 14.866 38.7251 14.9407 38.9942 15.7253C39.1188 16.0891 39.1194 16.6899 37.6262 17.9982C35.5537 13.2821 30.919 9.99805 25.5336 9.99805C18.2152 9.99805 12.2827 16.0622 12.2827 23.5429C12.2827 25.6584 12.7573 27.6606 13.6039 29.4447C13.4535 29.4974 13.3025 29.5501 13.1497 29.6033C10.6506 30.2771 10.5223 29.3663 10.511 29.0043C10.511 29.0043 10.481 28.0777 11.801 26.394C11.961 26.1894 11.9736 26.0142 11.6506 26.1423C9.82309 26.8656 7.01414 29.9414 7.47251 31.4689C7.80506 32.5769 9.66431 32.7245 12.5973 32.1788C13.4877 32.0134 13.852 31.9056 14.8969 31.6215C18.5292 30.6348 22.9775 28.9823 27.4162 26.996C31.9208 24.9804 35.7089 22.626 38.4369 20.4481C38.6724 20.2601 38.8995 20.0732 39.1194 19.8877C41.9577 17.4941 43.1075 15.6285 42.7402 14.5028Z" fill="#12224A"/>
<path d="M45.7961 22.1687C45.7782 21.9897 45.6484 21.842 45.4733 21.8011C45.2982 21.7602 45.1164 21.8352 45.0211 21.9877L44.2231 23.2652L42.7243 23.4151C42.5453 23.433 42.3976 23.5628 42.3567 23.7379C42.3158 23.913 42.3909 24.0948 42.5434 24.1901L43.8208 24.9881L43.9708 26.4869C43.9887 26.6659 44.1184 26.8136 44.2935 26.8545C44.4687 26.8954 44.6504 26.8203 44.7457 26.6678L45.5438 25.3904L47.0425 25.2404C47.2215 25.2225 47.3692 25.0928 47.4101 24.9177C47.451 24.7425 47.376 24.5608 47.2235 24.4655L45.946 23.6674L45.7961 22.1687Z" fill="#12224A"/>
<path d="M4.0149 16.3869C3.80543 16.2179 3.51167 16.2009 3.28405 16.3445C3.05642 16.4881 2.94535 16.7606 3.0077 17.0224L3.52993 19.2153L2.11449 20.9697C1.94549 21.1792 1.92843 21.473 2.07205 21.7006C2.21566 21.9282 2.48815 22.0393 2.74997 21.9769L4.94286 21.4547L6.69728 22.8702C6.90675 23.0392 7.20051 23.0562 7.42814 22.9126C7.65576 22.769 7.76683 22.4965 7.70448 22.2347L7.18226 20.0418L8.5977 18.2874C8.76669 18.0779 8.78375 17.7841 8.64013 17.5565C8.49652 17.3289 8.22403 17.2178 7.96221 17.2802L5.76932 17.8024L4.0149 16.3869Z" fill="#12224A"/>
</svg>
