<svg width="28" height="28" viewBox="0 0 28 28" fill="none" xmlns="http://www.w3.org/2000/svg">
<path d="M8.31895 16.8273C11.4326 16.7006 13.1461 16.4454 16.1831 15.88C12.9853 15.9715 11.1327 15.9766 7.89014 15.7554C8.04233 16.2181 8.14227 16.4209 8.31895 16.8273Z" fill="#616CFF"/>
<path d="M14 0C21.732 0 28 6.26801 28 14C28 21.732 21.732 28 14 28C6.26801 28 0 21.732 0 14C0 6.26801 6.26801 0 14 0ZM14 7.7666C10.9644 7.7666 8.43622 9.93708 7.88086 12.8105C6.95186 12.8867 1.70997 13.3585 1.70996 14.3135C1.71071 15.35 7.88594 15.7465 8.01855 15.7549C8.77668 18.3428 11.1671 20.2334 14 20.2334C16.7898 20.2332 19.1504 18.3996 19.9453 15.8721C21.0213 15.7769 26.0225 15.2813 26.0225 14.2451C26.0223 13.249 21.3998 12.7805 20.0869 12.667C19.4763 9.86542 16.9845 7.76679 14 7.7666Z" fill="url(#paint0_linear_503_131)"/>
<defs>
<linearGradient id="paint0_linear_503_131" x1="14" y1="28" x2="14" y2="0" gradientUnits="userSpaceOnUse">
<stop stop-color="#4854FF"/>
<stop offset="1" stop-color="#868EFF"/>
</linearGradient>
</defs>
</svg>
